<svg width="140" height="40" viewBox="0 0 140 40" fill="none" xmlns="http://www.w3.org/2000/svg">
<g clip-path="url(#clip0_1071_575)">
<g clip-path="url(#clip1_1071_575)">
<path d="M120.303 0.00013H19.7026C19.3359 0.00013 18.9736 0.00013 18.6079 0.00213C18.3018 0.00413 17.9981 0.00994 17.689 0.01483C17.0175 0.0227318 16.3476 0.0818063 15.6851 0.19154C15.0235 0.303663 14.3826 0.515046 13.7842 0.81854C13.1865 1.1246 12.6403 1.5223 12.1655 1.9972C11.6883 2.47077 11.2904 3.01815 10.9873 3.61829C10.6834 4.21724 10.4726 4.85907 10.3623 5.52161C10.251 6.18332 10.1911 6.85265 10.1831 7.52361C10.1738 7.83021 10.1729 8.13783 10.168 8.44447V31.5587C10.1729 31.8692 10.1738 32.17 10.1831 32.4806C10.1911 33.1516 10.251 33.8209 10.3623 34.4825C10.4723 35.1455 10.6831 35.7877 10.9873 36.3868C11.2903 36.985 11.6882 37.5302 12.1655 38.0011C12.6385 38.4781 13.185 38.8761 13.7842 39.1798C14.3826 39.4841 15.0234 39.6968 15.6851 39.8106C16.3477 39.9195 17.0175 39.9786 17.689 39.9874C17.9981 39.9942 18.3018 39.9981 18.6079 39.9981C18.9736 40.0001 19.336 40.0001 19.7026 40.0001H120.303C120.662 40.0001 121.027 40.0001 121.387 39.9981C121.691 39.9981 122.004 39.9942 122.309 39.9874C122.979 39.9791 123.647 39.92 124.309 39.8106C124.972 39.696 125.616 39.4834 126.217 39.1798C126.815 38.8759 127.361 38.478 127.834 38.0011C128.31 37.5284 128.709 36.9836 129.016 36.3868C129.318 35.7872 129.526 35.1451 129.635 34.4825C129.746 33.8208 129.808 33.1516 129.82 32.4806C129.824 32.17 129.824 31.8692 129.824 31.5587C129.832 31.1954 129.832 30.8341 129.832 30.4649V9.53626C129.832 9.17005 129.832 8.80677 129.824 8.44447C129.824 8.13783 129.824 7.83021 129.82 7.52357C129.808 6.85255 129.746 6.18337 129.635 5.52157C129.526 4.85941 129.317 4.21763 129.016 3.61825C128.398 2.41533 127.42 1.43616 126.217 0.81845C125.615 0.515697 124.972 0.30437 124.309 0.19145C123.648 0.0812328 122.979 0.0221378 122.309 0.01469C122.004 0.00981 121.691 0.00395 121.387 0.002C121.027 0 120.662 0.00013 120.303 0.00013Z" fill="#A6A6A6"/>
<path d="M18.6128 39.125C18.3082 39.125 18.0108 39.1211 17.7085 39.1143C17.0823 39.1061 16.4576 39.0516 15.8394 38.9512C15.263 38.8519 14.7046 38.6673 14.1827 38.4033C13.6655 38.1415 13.1938 37.7983 12.7857 37.3867C12.3716 36.98 12.0269 36.5082 11.7652 35.9902C11.5005 35.4688 11.3174 34.9099 11.2222 34.333C11.1193 33.7131 11.0636 33.0863 11.0557 32.458C11.0493 32.2471 11.041 31.5449 11.041 31.5449V8.44434C11.041 8.44434 11.0499 7.75293 11.0557 7.5498C11.0633 6.92248 11.1187 6.29665 11.2212 5.67773C11.3167 5.09925 11.4999 4.53875 11.7647 4.01563C12.0255 3.49794 12.3683 3.02586 12.7798 2.61768C13.1909 2.20562 13.6641 1.8606 14.1822 1.59521C14.7029 1.33209 15.2603 1.14873 15.8355 1.05127C16.4557 0.949836 17.0826 0.894996 17.711 0.88721L18.6133 0.875H121.382L122.295 0.8877C122.918 0.895099 123.539 0.94945 124.153 1.05029C124.734 1.14898 125.298 1.33362 125.824 1.59814C126.862 2.13299 127.707 2.97916 128.239 4.01807C128.5 4.53758 128.68 5.09351 128.774 5.66699C128.878 6.29099 128.936 6.92174 128.948 7.5542C128.951 7.8374 128.951 8.1416 128.951 8.44434C128.959 8.81934 128.959 9.17627 128.959 9.53613V30.4648C128.959 30.8281 128.959 31.1826 128.951 31.54C128.951 31.8652 128.951 32.1631 128.947 32.4697C128.936 33.0909 128.878 33.7104 128.776 34.3232C128.683 34.9043 128.501 35.4675 128.236 35.9932C127.973 36.5056 127.63 36.9733 127.221 37.3789C126.812 37.7927 126.34 38.1379 125.821 38.4014C125.296 38.6674 124.734 38.8527 124.153 38.9512C123.535 39.0522 122.91 39.1067 122.284 39.1143C121.991 39.1211 121.685 39.125 121.387 39.125L120.303 39.127L18.6128 39.125Z" fill="black"/>
<path d="M34.936 20.3007C34.9467 19.466 35.1684 18.6477 35.5805 17.9217C35.9925 17.1957 36.5815 16.5858 37.2925 16.1486C36.8408 15.5035 36.2449 14.9725 35.552 14.598C34.8592 14.2234 34.0886 14.0156 33.3014 13.991C31.6221 13.8147 29.9942 14.9958 29.1385 14.9958C28.2662 14.9958 26.9487 14.0085 25.53 14.0376C24.6123 14.0673 23.718 14.3341 22.9341 14.8122C22.1502 15.2903 21.5035 15.9632 21.0571 16.7655C19.1231 20.1139 20.5657 25.035 22.4183 27.7416C23.3452 29.0669 24.4284 30.5474 25.8459 30.4949C27.233 30.4374 27.751 29.6104 29.4253 29.6104C31.0841 29.6104 31.5701 30.4949 33.0163 30.4615C34.5047 30.4374 35.4424 29.1303 36.3368 27.7924C37.0028 26.848 37.5152 25.8043 37.8552 24.6999C36.9905 24.3341 36.2526 23.722 35.7335 22.9397C35.2144 22.1574 34.937 21.2396 34.936 20.3007Z" fill="white"/>
<path d="M32.2036 12.2109C33.0151 11.2367 33.4149 9.98451 33.3181 8.72028C32.0783 8.8505 30.933 9.44306 30.1105 10.3799C29.7084 10.8376 29.4004 11.37 29.2041 11.9468C29.0079 12.5235 28.9273 13.1333 28.9668 13.7413C29.587 13.7477 30.2005 13.6132 30.7611 13.3482C31.3218 13.0831 31.815 12.6942 32.2036 12.2109Z" fill="white"/>
<path d="M52.4688 27.1396H47.7354L46.5986 30.4961H44.5938L49.0772 18.0781H51.1602L55.6436 30.4961H53.6045L52.4688 27.1396ZM48.2256 25.5908H51.9776L50.128 20.1435H50.0762L48.2256 25.5908Z" fill="white"/>
<path d="M65.3252 25.9697C65.3252 28.7832 63.8194 30.5908 61.5469 30.5908C60.9713 30.6209 60.3988 30.4883 59.895 30.2082C59.3912 29.928 58.9764 29.5117 58.6983 29.0068H58.6553V33.4912H56.7969V21.4423H58.5957V22.9482H58.6299C58.9209 22.4457 59.3426 22.0316 59.8502 21.7497C60.3579 21.4679 60.9324 21.3289 61.5127 21.3476C63.8105 21.3476 65.3252 23.164 65.3252 25.9697ZM63.4151 25.9697C63.4151 24.1367 62.4678 22.9316 61.0225 22.9316C59.6026 22.9316 58.6475 24.1621 58.6475 25.9697C58.6475 27.7939 59.6026 29.0156 61.0225 29.0156C62.4678 29.0156 63.4151 27.8193 63.4151 25.9697Z" fill="white"/>
<path d="M75.2901 25.9697C75.2901 28.7832 73.7842 30.5908 71.5117 30.5908C70.9361 30.621 70.3636 30.4883 69.8598 30.2082C69.356 29.9281 68.9413 29.5117 68.6631 29.0068H68.6201V33.4912H66.7617V21.4424H68.5605V22.9483H68.5947C68.8857 22.4458 69.3074 22.0316 69.815 21.7498C70.3227 21.4679 70.8972 21.329 71.4775 21.3477C73.7754 21.3477 75.2901 23.1641 75.2901 25.9697ZM73.3799 25.9697C73.3799 24.1367 72.4326 22.9317 70.9873 22.9317C69.5674 22.9317 68.6123 24.1621 68.6123 25.9697C68.6123 27.794 69.5674 29.0156 70.9873 29.0156C72.4326 29.0156 73.3799 27.8194 73.3799 25.9697Z" fill="white"/>
<path d="M81.877 27.0361C82.0147 28.2676 83.211 29.0761 84.8457 29.0761C86.4121 29.0761 87.5391 28.2675 87.5391 27.1572C87.5391 26.1933 86.8594 25.6162 85.25 25.2207L83.6407 24.833C81.3604 24.2822 80.3018 23.2158 80.3018 21.4853C80.3018 19.3427 82.169 17.871 84.8203 17.871C87.4443 17.871 89.2432 19.3427 89.3037 21.4853H87.4277C87.3154 20.246 86.291 19.498 84.794 19.498C83.2969 19.498 82.2725 20.2548 82.2725 21.3564C82.2725 22.2343 82.9268 22.7509 84.5274 23.1464L85.8955 23.4823C88.4434 24.0849 89.502 25.1083 89.502 26.9247C89.502 29.248 87.6514 30.703 84.708 30.703C81.9541 30.703 80.0947 29.2821 79.9746 27.036L81.877 27.0361Z" fill="white"/>
<path d="M93.5117 19.2998V21.4424H95.2334V22.9141H93.5117V27.9053C93.5117 28.6807 93.8564 29.042 94.6133 29.042C94.8177 29.0384 95.0217 29.0241 95.2246 28.999V30.4619C94.8843 30.5255 94.5385 30.5543 94.1924 30.5478C92.3594 30.5478 91.6445 29.8593 91.6445 28.1035V22.9141H90.3281V21.4424H91.6445V19.2998H93.5117Z" fill="white"/>
<path d="M96.2324 25.9697C96.2324 23.1211 97.9101 21.3311 100.526 21.3311C103.151 21.3311 104.821 23.1211 104.821 25.9697C104.821 28.8262 103.16 30.6084 100.526 30.6084C97.8935 30.6084 96.2324 28.8262 96.2324 25.9697ZM102.928 25.9697C102.928 24.0156 102.032 22.8623 100.526 22.8623C99.0205 22.8623 98.126 24.0244 98.126 25.9697C98.126 27.9316 99.0205 29.0762 100.526 29.0762C102.032 29.0762 102.928 27.9316 102.928 25.9697Z" fill="white"/>
<path d="M106.352 21.4424H108.124V22.9834H108.167C108.287 22.5021 108.569 22.0768 108.965 21.7789C109.362 21.481 109.849 21.3287 110.345 21.3476C110.559 21.3469 110.773 21.3702 110.981 21.417V23.1553C110.711 23.0726 110.429 23.0347 110.146 23.043C109.877 23.032 109.607 23.0796 109.358 23.1825C109.108 23.2854 108.883 23.4411 108.699 23.639C108.515 23.8369 108.376 24.0723 108.292 24.3289C108.207 24.5856 108.179 24.8575 108.21 25.126V30.4961H106.352L106.352 21.4424Z" fill="white"/>
<path d="M119.55 27.8369C119.3 29.4805 117.699 30.6084 115.651 30.6084C113.018 30.6084 111.383 28.8437 111.383 26.0127C111.383 23.1729 113.026 21.3311 115.573 21.3311C118.078 21.3311 119.653 23.0518 119.653 25.7969V26.4336H113.259V26.5459C113.229 26.8791 113.271 27.2148 113.381 27.5306C113.491 27.8464 113.667 28.1352 113.898 28.3778C114.128 28.6203 114.408 28.8111 114.717 28.9374C115.027 29.0637 115.36 29.1226 115.694 29.1103C116.134 29.1515 116.574 29.0498 116.951 28.8203C117.328 28.5909 117.62 28.246 117.785 27.8369L119.55 27.8369ZM113.268 25.1348H117.794C117.811 24.8352 117.765 24.5354 117.661 24.2541C117.556 23.9729 117.394 23.7164 117.186 23.5006C116.977 23.2849 116.726 23.1145 116.449 23.0003C116.171 22.8861 115.873 22.8305 115.573 22.8369C115.271 22.8351 114.971 22.8933 114.691 23.008C114.411 23.1227 114.156 23.2918 113.942 23.5054C113.727 23.7191 113.557 23.973 113.442 24.2527C113.326 24.5323 113.267 24.8321 113.268 25.1348Z" fill="white"/>
<path d="M47.9951 8.73101C48.3847 8.70305 48.7757 8.76191 49.1398 8.90335C49.5039 9.04478 49.8321 9.26526 50.1007 9.54889C50.3693 9.83251 50.5716 10.1722 50.693 10.5435C50.8144 10.9148 50.8519 11.3083 50.8027 11.6959C50.8027 13.6021 49.7725 14.6979 47.9951 14.6979H45.8398V8.73101H47.9951ZM46.7666 13.854H47.8916C48.17 13.8707 48.4486 13.825 48.7071 13.7204C48.9657 13.6158 49.1976 13.4548 49.3861 13.2493C49.5746 13.0437 49.7149 12.7987 49.7968 12.5321C49.8786 12.2655 49.9 11.9839 49.8594 11.708C49.8971 11.4332 49.8735 11.1534 49.7904 10.8887C49.7073 10.6241 49.5667 10.3811 49.3786 10.1771C49.1905 9.97322 48.9597 9.81341 48.7026 9.70917C48.4455 9.60494 48.1686 9.55885 47.8916 9.57422H46.7666V13.854Z" fill="white"/>
<path d="M51.8499 12.4443C51.8216 12.1484 51.8554 11.8499 51.9493 11.5678C52.0431 11.2857 52.1949 11.0264 52.3948 10.8064C52.5948 10.5864 52.8385 10.4107 53.1103 10.2904C53.3822 10.1701 53.6762 10.108 53.9734 10.108C54.2707 10.108 54.5647 10.1701 54.8365 10.2904C55.1084 10.4107 55.3521 10.5864 55.552 10.8064C55.752 11.0264 55.9037 11.2857 55.9976 11.5678C56.0914 11.8499 56.1253 12.1484 56.097 12.4443C56.1258 12.7406 56.0924 13.0396 55.9988 13.3221C55.9052 13.6046 55.7535 13.8644 55.5535 14.0848C55.3535 14.3052 55.1096 14.4814 54.8375 14.6019C54.5654 14.7225 54.271 14.7847 53.9734 14.7847C53.6758 14.7847 53.3815 14.7225 53.1093 14.6019C52.8372 14.4814 52.5933 14.3052 52.3933 14.0848C52.1933 13.8644 52.0417 13.6046 51.9481 13.3221C51.8545 13.0396 51.821 12.7406 51.8499 12.4443ZM55.1829 12.4443C55.1829 11.4683 54.7444 10.8975 53.9749 10.8975C53.2024 10.8975 52.7679 11.4683 52.7679 12.4444C52.7679 13.4282 53.2025 13.9946 53.9749 13.9946C54.7444 13.9946 55.1829 13.4243 55.1829 12.4443Z" fill="white"/>
<path d="M61.7422 14.6978H60.8203L59.8897 11.3813H59.8193L58.8926 14.6978H57.9795L56.7383 10.1948H57.6397L58.4463 13.6308H58.5127L59.4385 10.1948H60.291L61.2168 13.6308H61.2871L62.0898 10.1948H62.9785L61.7422 14.6978Z" fill="white"/>
<path d="M64.0215 10.1948H64.877V10.9101H64.9434C65.056 10.6532 65.246 10.4378 65.4869 10.294C65.7278 10.1502 66.0075 10.0852 66.2871 10.1079C66.5062 10.0914 66.7262 10.1244 66.9308 10.2045C67.1354 10.2846 67.3194 10.4097 67.469 10.5706C67.6187 10.7314 67.7303 10.9239 67.7955 11.1337C67.8607 11.3435 67.8779 11.5653 67.8457 11.7827V14.6977H66.957V12.0058C66.957 11.2822 66.6426 10.9223 65.9854 10.9223C65.8366 10.9154 65.6881 10.9407 65.55 10.9966C65.412 11.0524 65.2876 11.1374 65.1855 11.2458C65.0834 11.3542 65.0059 11.4834 64.9584 11.6245C64.9108 11.7656 64.8944 11.9154 64.9102 12.0635V14.6977H64.0215L64.0215 10.1948Z" fill="white"/>
<path d="M69.2617 8.43701H70.1504V14.6978H69.2617V8.43701Z" fill="white"/>
<path d="M71.387 12.4444C71.3587 12.1484 71.3926 11.8499 71.4864 11.5678C71.5803 11.2857 71.7321 11.0263 71.932 10.8064C72.132 10.5864 72.3757 10.4106 72.6476 10.2903C72.9195 10.17 73.2135 10.1079 73.5108 10.1079C73.808 10.1079 74.1021 10.17 74.3739 10.2903C74.6458 10.4106 74.8895 10.5864 75.0895 10.8064C75.2894 11.0263 75.4412 11.2857 75.5351 11.5678C75.6289 11.8499 75.6628 12.1484 75.6345 12.4444C75.6633 12.7406 75.6299 13.0396 75.5362 13.3221C75.4426 13.6046 75.2909 13.8645 75.0909 14.0849C74.8909 14.3053 74.647 14.4814 74.3749 14.6019C74.1027 14.7225 73.8084 14.7847 73.5108 14.7847C73.2131 14.7847 72.9188 14.7225 72.6466 14.6019C72.3745 14.4814 72.1306 14.3053 71.9306 14.0849C71.7306 13.8645 71.5789 13.6046 71.4853 13.3221C71.3916 13.0396 71.3582 12.7406 71.387 12.4444ZM74.72 12.4444C74.72 11.4683 74.2815 10.8975 73.512 10.8975C72.7395 10.8975 72.305 11.4683 72.305 12.4444C72.305 13.4283 72.7395 13.9947 73.512 13.9947C74.2815 13.9947 74.72 13.4244 74.72 12.4444Z" fill="white"/>
<path d="M76.5703 13.4243C76.5703 12.6138 77.1738 12.1465 78.2451 12.0801L79.4648 12.0098V11.6211C79.4648 11.1455 79.1504 10.877 78.543 10.877C78.0469 10.877 77.7031 11.0591 77.6045 11.3774H76.7441C76.835 10.604 77.5625 10.1079 78.584 10.1079C79.7129 10.1079 80.3496 10.6699 80.3496 11.6211V14.6978H79.4941V14.0649H79.4238C79.2811 14.2919 79.0807 14.477 78.8431 14.6012C78.6055 14.7254 78.3391 14.7843 78.0713 14.7719C77.8823 14.7916 77.6912 14.7714 77.5104 14.7127C77.3297 14.654 77.1632 14.5581 77.0218 14.4311C76.8804 14.3042 76.7671 14.149 76.6894 13.9756C76.6116 13.8021 76.5711 13.6144 76.5703 13.4243ZM79.4648 13.0395V12.6631L78.3652 12.7334C77.7451 12.7749 77.4639 12.9858 77.4639 13.3828C77.4639 13.7881 77.8154 14.0239 78.2989 14.0239C78.4405 14.0382 78.5836 14.0239 78.7196 13.9819C78.8556 13.9398 78.9817 13.8707 79.0905 13.7789C79.1993 13.6871 79.2885 13.5743 79.3528 13.4473C79.4171 13.3202 79.4552 13.1816 79.4648 13.0395Z" fill="white"/>
<path d="M81.5176 12.4444C81.5176 11.0215 82.249 10.1201 83.3867 10.1201C83.6681 10.1072 83.9474 10.1746 84.192 10.3145C84.4365 10.4544 84.6361 10.661 84.7676 10.9101H84.834V8.43701H85.7227V14.6978H84.8711V13.9863H84.8008C84.6592 14.2338 84.4526 14.4378 84.2033 14.5763C83.9541 14.7148 83.6717 14.7825 83.3867 14.772C82.2412 14.772 81.5176 13.8706 81.5176 12.4444ZM82.4356 12.4444C82.4356 13.3994 82.8858 13.9741 83.6387 13.9741C84.3877 13.9741 84.8506 13.3911 84.8506 12.4483C84.8506 11.5098 84.3829 10.9185 83.6387 10.9185C82.8906 10.9185 82.4356 11.4971 82.4356 12.4444Z" fill="white"/>
<path d="M89.3987 12.4443C89.3704 12.1484 89.4043 11.8499 89.4981 11.5678C89.5919 11.2857 89.7437 11.0264 89.9436 10.8064C90.1436 10.5864 90.3873 10.4107 90.6591 10.2904C90.931 10.1701 91.225 10.108 91.5223 10.108C91.8195 10.108 92.1135 10.1701 92.3854 10.2904C92.6572 10.4107 92.9009 10.5864 93.1009 10.8064C93.3008 11.0264 93.4526 11.2857 93.5464 11.5678C93.6402 11.8499 93.6741 12.1484 93.6458 12.4443C93.6746 12.7406 93.6412 13.0396 93.5476 13.3221C93.454 13.6046 93.3023 13.8644 93.1023 14.0848C92.9023 14.3052 92.6585 14.4814 92.3863 14.6019C92.1142 14.7225 91.8199 14.7847 91.5223 14.7847C91.2246 14.7847 90.9303 14.7225 90.6582 14.6019C90.386 14.4814 90.1422 14.3052 89.9422 14.0848C89.7422 13.8644 89.5905 13.6046 89.4969 13.3221C89.4033 13.0396 89.3699 12.7406 89.3987 12.4443ZM92.7317 12.4443C92.7317 11.4683 92.2932 10.8975 91.5237 10.8975C90.7513 10.8975 90.3167 11.4683 90.3167 12.4444C90.3167 13.4282 90.7513 13.9946 91.5237 13.9946C92.2932 13.9946 92.7317 13.4243 92.7317 12.4443Z" fill="white"/>
<path d="M94.8379 10.1948H95.6934V10.9101H95.7598C95.8724 10.6532 96.0624 10.4378 96.3033 10.294C96.5442 10.1502 96.8239 10.0852 97.1035 10.1079C97.3226 10.0914 97.5426 10.1244 97.7472 10.2045C97.9518 10.2846 98.1358 10.4097 98.2855 10.5706C98.4351 10.7314 98.5467 10.9239 98.6119 11.1337C98.6771 11.3435 98.6943 11.5653 98.6621 11.7827V14.6977H97.7734V12.0058C97.7734 11.2822 97.459 10.9223 96.8018 10.9223C96.653 10.9154 96.5045 10.9407 96.3664 10.9966C96.2284 11.0524 96.104 11.1374 96.0019 11.2458C95.8998 11.3542 95.8223 11.4834 95.7748 11.6245C95.7273 11.7656 95.7108 11.9154 95.7266 12.0635V14.6977H94.8379V10.1948Z" fill="white"/>
<path d="M103.685 9.07373V10.2153H104.66V10.9639H103.685V13.2793C103.685 13.751 103.879 13.9575 104.321 13.9575C104.435 13.9572 104.548 13.9503 104.66 13.937V14.6772C104.501 14.7058 104.339 14.721 104.177 14.7226C103.188 14.7226 102.795 14.375 102.795 13.5068V10.9638H102.08V10.2153H102.795V9.07373H103.685Z" fill="white"/>
<path d="M105.873 8.43701H106.754V10.9185H106.824C106.942 10.6591 107.138 10.4425 107.383 10.2982C107.629 10.1539 107.913 10.0888 108.197 10.1118C108.415 10.1 108.633 10.1364 108.835 10.2184C109.038 10.3004 109.219 10.4261 109.367 10.5864C109.516 10.7468 109.626 10.9378 109.692 11.146C109.758 11.3541 109.777 11.5742 109.748 11.7905V14.6978H108.858V12.0098C108.858 11.2905 108.523 10.9263 107.896 10.9263C107.743 10.9137 107.589 10.9347 107.445 10.9878C107.302 11.0408 107.171 11.1247 107.063 11.2334C106.955 11.3421 106.872 11.4732 106.82 11.6173C106.768 11.7614 106.748 11.9152 106.762 12.0679V14.6977H105.873L105.873 8.43701Z" fill="white"/>
<path d="M114.929 13.4819C114.809 13.8935 114.547 14.2495 114.19 14.4876C113.834 14.7258 113.405 14.8309 112.978 14.7847C112.682 14.7925 112.387 14.7357 112.114 14.6182C111.842 14.5006 111.598 14.3252 111.4 14.1041C111.202 13.8829 111.055 13.6214 110.968 13.3376C110.881 13.0537 110.858 12.7544 110.898 12.4605C110.859 12.1656 110.883 11.8656 110.969 11.581C111.056 11.2963 111.203 11.0335 111.399 10.8105C111.596 10.5874 111.839 10.4092 112.11 10.288C112.382 10.1668 112.677 10.1054 112.974 10.1079C114.227 10.1079 114.983 10.9639 114.983 12.3779V12.688H111.803V12.7378C111.789 12.9031 111.81 13.0694 111.864 13.2261C111.918 13.3829 112.005 13.5266 112.118 13.6481C112.231 13.7695 112.368 13.866 112.52 13.9314C112.672 13.9968 112.837 14.0297 113.003 14.0278C113.215 14.0533 113.431 14.0151 113.621 13.9178C113.812 13.8206 113.97 13.6689 114.074 13.4819L114.929 13.4819ZM111.803 12.0308H114.078C114.089 11.8796 114.068 11.7278 114.017 11.5851C113.967 11.4424 113.886 11.3119 113.782 11.2021C113.677 11.0922 113.551 11.0054 113.411 10.9472C113.271 10.8891 113.121 10.8608 112.969 10.8643C112.816 10.8623 112.663 10.8912 112.521 10.9491C112.378 11.0071 112.249 11.0929 112.14 11.2017C112.032 11.3104 111.946 11.4397 111.888 11.5821C111.83 11.7245 111.801 11.8771 111.803 12.0308Z" fill="white"/>
</g>
</g>
<defs>
<clipPath id="clip0_1071_575">
<rect width="140" height="40" fill="white"/>
</clipPath>
<clipPath id="clip1_1071_575">
<rect width="119.664" height="40" fill="white" transform="translate(10.168)"/>
</clipPath>
</defs>
</svg>
