<svg width="20" height="20" viewBox="0 0 20 20" fill="none" xmlns="http://www.w3.org/2000/svg">
<path fill-rule="evenodd" clip-rule="evenodd" d="M15.8333 4.58325H4.16667C3.93655 4.58325 3.75 4.7698 3.75 4.99992V15.8333C3.75 16.0633 3.93655 16.2499 4.16667 16.2499H15.8333C16.0634 16.2499 16.25 16.0633 16.25 15.8333V4.99992C16.25 4.7698 16.0634 4.58325 15.8333 4.58325ZM4.16667 3.33325C3.24619 3.33325 2.5 4.07944 2.5 4.99992V15.8333C2.5 16.7538 3.24619 17.4999 4.16667 17.4999H15.8333C16.7538 17.4999 17.5 16.7538 17.5 15.8333V4.99992C17.5 4.07944 16.7538 3.33325 15.8333 3.33325H4.16667Z" fill="#707070"/>
<path d="M5 2.50008C5 2.03985 5.3731 1.66675 5.83333 1.66675C6.29357 1.66675 6.66667 2.03985 6.66667 2.50008V3.33341C6.66667 3.79365 6.29357 4.16675 5.83333 4.16675C5.3731 4.16675 5 3.79365 5 3.33341V2.50008Z" fill="#707070"/>
<path d="M13.334 2.50008C13.334 2.03985 13.7071 1.66675 14.1673 1.66675C14.6276 1.66675 15.0007 2.03985 15.0007 2.50008V3.33341C15.0007 3.79365 14.6276 4.16675 14.1673 4.16675C13.7071 4.16675 13.334 3.79365 13.334 3.33341V2.50008Z" fill="#707070"/>
<path fill-rule="evenodd" clip-rule="evenodd" d="M15 7.29175C15 7.63692 14.7202 7.91675 14.375 7.91675H5.625C5.27983 7.91675 5 7.63692 5 7.29175C5 6.94657 5.27983 6.66675 5.625 6.66675H14.375C14.7202 6.66675 15 6.94657 15 7.29175Z" fill="#707070"/>
</svg>
