<svg width="18" height="14" viewBox="0 0 18 14" fill="none" xmlns="http://www.w3.org/2000/svg">
<path fill-rule="evenodd" clip-rule="evenodd" d="M12.4928 1.99992C13.1098 1.99992 13.6483 1.66475 13.9365 1.16659H15.8262C16.2864 1.16659 16.6595 1.53969 16.6595 1.99992V3.7716C15.2218 4.14164 14.1595 5.44675 14.1595 6.99992C14.1595 8.55309 15.2218 9.85817 16.6595 10.2283V11.9999C16.6595 12.4602 16.2864 12.8333 15.8262 12.8333H13.9365C13.6483 12.3351 13.1098 11.9999 12.4928 11.9999C11.8759 11.9999 11.3373 12.3351 11.0492 12.8333H2.49284C2.03261 12.8333 1.65951 12.4602 1.65951 11.9999V10.2283C3.0972 9.85817 4.15951 8.55309 4.15951 6.99992C4.15951 5.44675 3.0972 4.14164 1.65951 3.7716V1.99992C1.65951 1.53969 2.03261 1.16659 2.49284 1.16659H11.0492C11.3373 1.66475 11.8759 1.99992 12.4928 1.99992ZM14.9928 6.99992C14.9928 5.61917 16.1121 4.49992 17.4928 4.49992V1.99992C17.4928 1.07944 16.7467 0.333252 15.8262 0.333252H13.3262C13.3262 0.793485 12.9531 1.16659 12.4928 1.16659C12.0326 1.16659 11.6595 0.793485 11.6595 0.333252H2.49284C1.57236 0.333252 0.826172 1.07944 0.826172 1.99992V4.49992C2.20688 4.49992 3.32617 5.61917 3.32617 6.99992C3.32617 8.38067 2.20688 9.49992 0.826172 9.49992V11.9999C0.826172 12.9204 1.57236 13.6666 2.49284 13.6666H11.6595C11.6595 13.2063 12.0326 12.8333 12.4928 12.8333C12.9531 12.8333 13.3262 13.2063 13.3262 13.6666H15.8262C16.7467 13.6666 17.4928 12.9204 17.4928 11.9999V9.49992C16.1121 9.49992 14.9928 8.38067 14.9928 6.99992ZM12.4928 4.49992C12.9531 4.49992 13.3262 4.12683 13.3262 3.66659C13.3262 3.20635 12.9531 2.83325 12.4928 2.83325C12.0326 2.83325 11.6595 3.20635 11.6595 3.66659C11.6595 4.12683 12.0326 4.49992 12.4928 4.49992ZM12.4928 7.83325C12.9531 7.83325 13.3262 7.46017 13.3262 6.99992C13.3262 6.53967 12.9531 6.16658 12.4928 6.16658C12.0326 6.16658 11.6595 6.53967 11.6595 6.99992C11.6595 7.46017 12.0326 7.83325 12.4928 7.83325ZM13.3262 10.3333C13.3262 10.7935 12.9531 11.1666 12.4928 11.1666C12.0326 11.1666 11.6595 10.7935 11.6595 10.3333C11.6595 9.873 12.0326 9.49992 12.4928 9.49992C12.9531 9.49992 13.3262 9.873 13.3262 10.3333Z" fill="#707070"/>
</svg>
