<svg width="18" height="18" viewBox="0 0 18 18" fill="none" xmlns="http://www.w3.org/2000/svg">
<path fill-rule="evenodd" clip-rule="evenodd" d="M8.99935 16.0834C9.76852 16.0834 10.6783 15.5572 11.463 14.2495C11.6925 13.8671 11.8994 13.434 12.0769 12.9584H5.92176C6.09925 13.434 6.30622 13.8671 6.53568 14.2495C7.32034 15.5572 8.23018 16.0834 8.99935 16.0834ZM5.54867 11.7084C5.35754 10.88 5.24935 9.96733 5.24935 9.00008C5.24935 8.03283 5.35754 7.12017 5.54867 6.29175H12.45C12.6412 7.12017 12.7493 8.03283 12.7493 9.00008C12.7493 9.96733 12.6412 10.88 12.45 11.7084H5.54867ZM13.4003 12.9584C13.1152 13.8374 12.7379 14.6213 12.2902 15.2742C13.3314 14.7269 14.2198 13.9281 14.8743 12.9584H13.4003ZM15.5464 11.7084H13.7293C13.9043 10.8592 13.9993 9.94816 13.9993 9.00008C13.9993 8.052 13.9043 7.14088 13.7293 6.29175H15.5464C15.892 7.1261 16.0827 8.04083 16.0827 9.00008C16.0827 9.95933 15.892 10.8741 15.5464 11.7084ZM4.26934 11.7084H2.45222C2.1067 10.8741 1.91602 9.95933 1.91602 9.00008C1.91602 8.04083 2.1067 7.1261 2.45222 6.29175H4.26934C4.09435 7.14088 3.99935 8.052 3.99935 9.00008C3.99935 9.94816 4.09435 10.8592 4.26934 11.7084ZM3.12437 12.9584H4.59832C4.88354 13.8374 5.26078 14.6213 5.70853 15.2742C4.6673 14.7269 3.77897 13.9281 3.12437 12.9584ZM5.92176 5.04175H12.0769C11.8994 4.56618 11.6925 4.13308 11.463 3.75065C10.6783 2.44288 9.76852 1.91675 8.99935 1.91675C8.23018 1.91675 7.32034 2.44288 6.53568 3.75065C6.30622 4.13308 6.09925 4.56618 5.92176 5.04175ZM13.4003 5.04175H14.8743C14.2198 4.0721 13.3314 3.27323 12.2902 2.72596C12.7379 3.37886 13.1152 4.16275 13.4003 5.04175ZM5.70853 2.72596C5.26078 3.37886 4.88353 4.16275 4.59832 5.04175H3.12437C3.77897 4.0721 4.6673 3.27323 5.70853 2.72596ZM8.99935 0.666748C13.6017 0.666748 17.3327 4.39771 17.3327 9.00008C17.3327 13.6024 13.6017 17.3334 8.99935 17.3334C4.39697 17.3334 0.666016 13.6024 0.666016 9.00008C0.666016 4.39771 4.39697 0.666748 8.99935 0.666748Z" fill="#212121"/>
</svg>
