<svg width="140" height="40" viewBox="0 0 140 40" fill="none" xmlns="http://www.w3.org/2000/svg">
<g clip-path="url(#clip0_1071_561)">
<g clip-path="url(#clip1_1071_561)">
<path d="M132.5 0H7.5C4.73858 0 2.5 2.23858 2.5 5V35C2.5 37.7614 4.73858 40 7.5 40H132.5C135.261 40 137.5 37.7614 137.5 35V5C137.5 2.23858 135.261 0 132.5 0Z" fill="black"/>
<path d="M132.5 0.8C133.614 0.8 134.682 1.2425 135.47 2.03015C136.258 2.8178 136.7 3.88609 136.7 5V35C136.7 36.1139 136.258 37.1822 135.47 37.9698C134.682 38.7575 133.614 39.2 132.5 39.2H7.5C6.38609 39.2 5.3178 38.7575 4.53015 37.9698C3.7425 37.1822 3.3 36.1139 3.3 35V5C3.3 3.88609 3.7425 2.8178 4.53015 2.03015C5.3178 1.2425 6.38609 0.8 7.5 0.8H132.5ZM132.5 0H7.5C6.17392 0 4.90215 0.526784 3.96447 1.46447C3.02678 2.40215 2.5 3.67392 2.5 5V35C2.5 36.3261 3.02678 37.5979 3.96447 38.5355C4.90215 39.4732 6.17392 40 7.5 40H132.5C133.826 40 135.098 39.4732 136.036 38.5355C136.973 37.5979 137.5 36.3261 137.5 35V5C137.5 3.67392 136.973 2.40215 136.036 1.46447C135.098 0.526784 133.826 0 132.5 0Z" fill="#A6A6A6"/>
<path d="M49.9191 10.24C49.9361 10.6068 49.8784 10.9732 49.7495 11.317C49.6205 11.6608 49.4231 11.9748 49.1691 12.24C48.8855 12.5346 48.543 12.7661 48.164 12.9195C47.7849 13.0728 47.3778 13.1446 46.9691 13.13C46.3491 13.1251 45.7443 12.9374 45.2305 12.5904C44.7167 12.2433 44.3168 11.7523 44.0808 11.1789C43.8448 10.6055 43.7833 9.97524 43.904 9.36706C44.0247 8.75888 44.3221 8.19983 44.7591 7.75997C45.0463 7.46676 45.3906 7.23559 45.7708 7.08079C46.1509 6.92598 46.5588 6.85083 46.9691 6.85997C47.3919 6.85856 47.8105 6.94364 48.1991 7.10997C48.561 7.25593 48.8831 7.48553 49.1391 7.77997L48.6091 8.30997C48.4095 8.07257 48.1575 7.88483 47.8728 7.76161C47.5882 7.63839 47.2788 7.58305 46.9691 7.59997C46.6568 7.59844 46.3473 7.66 46.0593 7.78096C45.7713 7.90192 45.5107 8.07979 45.2932 8.30391C45.0756 8.52803 44.9055 8.79377 44.7931 9.08522C44.6807 9.37666 44.6283 9.6878 44.6391 9.99997C44.6326 10.4661 44.7642 10.9238 45.0174 11.3152C45.2707 11.7066 45.6342 12.0142 46.062 12.1993C46.4899 12.3843 46.963 12.4385 47.4217 12.355C47.8803 12.2715 48.3039 12.054 48.6391 11.73C48.9468 11.3965 49.1243 10.9635 49.1391 10.51H46.9691V9.78997H49.8791C49.9058 9.93849 49.9192 10.0891 49.9191 10.24ZM54.4991 7.73997H51.7991V9.63997H54.2591V10.36H51.7991V12.26H54.4991V13H50.9991V6.99997H54.4991V7.73997ZM57.7791 13H57.0091V7.73997H55.3291V6.99997H59.4991V7.73997H57.7791V13ZM62.4391 13V6.99997H63.2091V13H62.4391ZM66.6291 13H65.8591V7.73997H64.1791V6.99997H68.2991V7.73997H66.6291V13ZM76.1091 12.22C75.5245 12.8013 74.7336 13.1277 73.9091 13.1277C73.0847 13.1277 72.2937 12.8013 71.7091 12.22C71.1409 11.6185 70.8243 10.8224 70.8243 9.99497C70.8243 9.16753 71.1409 8.37145 71.7091 7.76997C71.9973 7.47972 72.34 7.24935 72.7176 7.09214C73.0952 6.93494 73.5001 6.854 73.9091 6.854C74.3181 6.854 74.7231 6.93494 75.1006 7.09214C75.4782 7.24935 75.821 7.47972 76.1091 7.76997C76.6796 8.3703 76.9977 9.16682 76.9977 9.99497C76.9977 10.8232 76.6796 11.6197 76.1091 12.22ZM72.2791 11.72C72.712 12.1511 73.2981 12.3932 73.9091 12.3932C74.5201 12.3932 75.1062 12.1511 75.5391 11.72C75.9664 11.249 76.203 10.6359 76.203 9.99997C76.203 9.36408 75.9664 8.75095 75.5391 8.27997C75.1062 7.84885 74.5201 7.6068 73.9091 7.6068C73.2981 7.6068 72.712 7.84885 72.2791 8.27997C71.8519 8.75095 71.6152 9.36408 71.6152 9.99997C71.6152 10.6359 71.8519 11.249 72.2791 11.72ZM78.0791 13V6.99997H79.0191L81.9391 11.67V6.99997H82.7091V13H81.9091L78.8591 8.10997V13H78.0791Z" fill="white" stroke="white" stroke-width="0.2" stroke-miterlimit="10"/>
<path d="M70.64 21.75C69.8003 21.7539 68.9806 22.0066 68.2843 22.476C67.588 22.9453 67.0464 23.6105 66.7278 24.3874C66.4092 25.1643 66.3279 26.0182 66.4941 26.8413C66.6604 27.6644 67.0667 28.4198 67.6619 29.0122C68.257 29.6046 69.0143 30.0074 69.8382 30.1697C70.6621 30.3321 71.5156 30.2468 72.291 29.9245C73.0664 29.6023 73.729 29.0575 74.1951 28.3591C74.6612 27.6606 74.91 26.8397 74.91 26C74.9182 25.4379 74.8131 24.88 74.6012 24.3593C74.3892 23.8387 74.0747 23.366 73.6763 22.9695C73.2778 22.573 72.8037 22.2606 72.2821 22.0511C71.7605 21.8416 71.202 21.7392 70.64 21.75ZM70.64 28.58C70.1236 28.6161 69.6082 28.496 69.161 28.2354C68.7137 27.9747 68.3552 27.5855 68.132 27.1184C67.9089 26.6513 67.8314 26.1279 67.9097 25.6161C67.988 25.1044 68.2184 24.6281 68.571 24.249C68.9236 23.87 69.382 23.6058 69.8868 23.4908C70.3915 23.3758 70.9192 23.4152 71.4012 23.6041C71.8832 23.7929 72.2973 24.1224 72.5895 24.5497C72.8818 24.977 73.0387 25.4823 73.04 26C73.0561 26.328 73.0064 26.6559 72.8937 26.9644C72.7811 27.2729 72.6078 27.5557 72.3841 27.7962C72.1605 28.0366 71.8909 28.2299 71.5914 28.3645C71.2918 28.4991 70.9683 28.5724 70.64 28.58ZM61.33 21.75C60.4899 21.752 59.6692 22.0029 58.9716 22.4711C58.274 22.9393 57.7308 23.6037 57.4107 24.3805C57.0905 25.1573 57.0078 26.0115 57.1729 26.8352C57.338 27.659 57.7436 28.4153 58.3383 29.0087C58.9331 29.6021 59.6904 30.0059 60.5145 30.1691C61.3387 30.3322 62.1927 30.2475 62.9687 29.9255C63.7447 29.6036 64.4079 29.0588 64.8744 28.3601C65.341 27.6614 65.59 26.8401 65.59 26C65.5982 25.4379 65.4931 24.88 65.2812 24.3593C65.0692 23.8387 64.7547 23.366 64.3563 22.9695C63.9578 22.573 63.4837 22.2606 62.9621 22.0511C62.4405 21.8416 61.882 21.7392 61.32 21.75H61.33ZM61.33 28.58C60.8133 28.6181 60.2971 28.4999 59.8486 28.2406C59.4001 27.9812 59.0401 27.5929 58.8154 27.1261C58.5906 26.6593 58.5117 26.1356 58.5887 25.6233C58.6658 25.111 58.8952 24.6338 59.2473 24.2537C59.5994 23.8736 60.0577 23.6084 60.5627 23.4924C61.0676 23.3765 61.5958 23.4153 62.0784 23.6037C62.561 23.7921 62.9757 24.1215 63.2685 24.5489C63.5613 24.9763 63.7186 25.4819 63.72 26C63.7361 26.328 63.6864 26.6559 63.5737 26.9644C63.4611 27.2729 63.2878 27.5557 63.0641 27.7962C62.8405 28.0366 62.5709 28.2299 62.2714 28.3645C61.9718 28.4991 61.6483 28.5724 61.32 28.58H61.33ZM50.24 23.06V24.86H54.56C54.4923 25.7078 54.1399 26.5078 53.56 27.13C53.1278 27.5702 52.6082 27.9151 52.0347 28.1425C51.4612 28.3698 50.8464 28.4746 50.23 28.45C48.957 28.45 47.7361 27.9443 46.8359 27.0441C45.9357 26.1439 45.43 24.923 45.43 23.65C45.43 22.377 45.9357 21.1561 46.8359 20.2559C47.7361 19.3557 48.957 18.85 50.23 18.85C51.4478 18.8301 52.6238 19.294 53.5 20.14L54.77 18.87C54.1785 18.271 53.4728 17.7969 52.6946 17.4757C51.9165 17.1544 51.0818 16.9927 50.24 17C49.351 16.9654 48.4642 17.1106 47.6326 17.427C46.8011 17.7433 46.042 18.2243 45.4008 18.841C44.7596 19.4577 44.2494 20.1976 43.901 21.0162C43.5526 21.8348 43.373 22.7153 43.373 23.605C43.373 24.4947 43.5526 25.3752 43.901 26.1938C44.2494 27.0124 44.7596 27.7522 45.4008 28.369C46.042 28.9857 46.8011 29.4667 47.6326 29.783C48.4642 30.0994 49.351 30.2446 50.24 30.21C51.096 30.2487 51.9503 30.1036 52.7454 29.7845C53.5406 29.4654 54.2582 28.9796 54.85 28.36C55.8977 27.2089 56.4571 25.6958 56.41 24.14C56.4132 23.761 56.3797 23.3825 56.31 23.01L50.24 23.06ZM95.55 24.46C95.2892 23.6927 94.8015 23.0228 94.1515 22.5388C93.5015 22.0549 92.7198 21.7798 91.91 21.75C91.363 21.7489 90.8216 21.8601 90.3192 22.0765C89.8169 22.293 89.3643 22.6102 88.9894 23.0085C88.6145 23.4069 88.3253 23.8778 88.1396 24.3924C87.954 24.9069 87.8759 25.4541 87.91 26C87.8979 26.5589 87.9985 27.1145 88.2059 27.6337C88.4133 28.1528 88.7232 28.6249 89.1171 29.0216C89.5111 29.4183 89.9808 29.7315 90.4985 29.9426C91.0161 30.1536 91.571 30.2582 92.13 30.25C92.8295 30.2538 93.519 30.084 94.1368 29.7559C94.7547 29.4278 95.2814 28.9516 95.67 28.37L94.22 27.37C94.0036 27.7308 93.6972 28.0292 93.3309 28.236C92.9645 28.4429 92.5507 28.5511 92.13 28.55C91.6968 28.5665 91.2687 28.4523 90.9013 28.2222C90.534 27.9922 90.2443 27.6569 90.07 27.26L95.76 24.91L95.55 24.46ZM89.75 25.88C89.7297 25.5707 89.7714 25.2604 89.8725 24.9674C89.9737 24.6744 90.1322 24.4045 90.339 24.1736C90.5457 23.9426 90.7965 23.7553 91.0765 23.6224C91.3566 23.4896 91.6604 23.414 91.97 23.4C92.2926 23.3787 92.6143 23.4527 92.8952 23.6127C93.1761 23.7727 93.4039 24.0117 93.55 24.3L89.75 25.88ZM85.13 30H87V17.5H85.13V30ZM82.07 22.7H82C81.7182 22.3849 81.3729 22.1329 80.9869 21.9606C80.6009 21.7882 80.1828 21.6994 79.76 21.7C78.6672 21.753 77.6367 22.2244 76.882 23.0166C76.1273 23.8087 75.7063 24.8609 75.7063 25.955C75.7063 27.0491 76.1273 28.1013 76.882 28.8934C77.6367 29.6856 78.6672 30.157 79.76 30.21C80.1838 30.2171 80.6039 30.1313 80.991 29.9585C81.378 29.7857 81.7224 29.5302 82 29.21H82.06V29.82C82.06 31.45 81.19 32.32 79.79 32.32C79.3237 32.3091 78.8712 32.1597 78.4901 31.8908C78.1091 31.6219 77.8166 31.2456 77.65 30.81L76.02 31.49C76.3268 32.2364 76.8496 32.874 77.5213 33.3212C78.1931 33.7685 78.9831 34.0048 79.79 34C81.98 34 83.79 32.71 83.79 29.57V22H82.07V22.7ZM79.93 28.58C79.285 28.5231 78.6846 28.2267 78.2473 27.7492C77.81 27.2716 77.5674 26.6475 77.5674 26C77.5674 25.3524 77.81 24.7284 78.2473 24.2508C78.6846 23.7733 79.285 23.4768 79.93 23.42C80.2498 23.4364 80.5631 23.5167 80.8515 23.656C81.1398 23.7954 81.3973 23.9911 81.6089 24.2315C81.8204 24.4719 81.9817 24.7523 82.0832 25.056C82.1847 25.3597 82.2244 25.6807 82.2 26C82.2273 26.3207 82.1893 26.6436 82.0882 26.9491C81.9871 27.2547 81.8251 27.5366 81.612 27.7778C81.3988 28.019 81.139 28.2144 80.8482 28.3523C80.5574 28.4902 80.2416 28.5676 79.92 28.58H79.93ZM104.31 17.5H99.84V30H101.71V25.26H104.32C104.853 25.2983 105.388 25.2264 105.892 25.0487C106.396 24.8711 106.858 24.5915 107.249 24.2275C107.64 23.8635 107.952 23.4227 108.165 22.9328C108.379 22.4429 108.489 21.9143 108.489 21.38C108.489 20.8457 108.379 20.3171 108.165 19.8272C107.952 19.3373 107.64 18.8965 107.249 18.5325C106.858 18.1685 106.396 17.8889 105.892 17.7113C105.388 17.5336 104.853 17.4617 104.32 17.5H104.31ZM104.31 23.5H101.7V19.24H104.35C104.919 19.24 105.464 19.466 105.867 19.8683C106.269 20.2705 106.495 20.8161 106.495 21.385C106.495 21.9539 106.269 22.4995 105.867 22.9017C105.464 23.304 104.919 23.53 104.35 23.53L104.31 23.5ZM115.84 21.7C115.159 21.6593 114.481 21.8184 113.89 22.1577C113.298 22.497 112.819 23.0018 112.51 23.61L114.17 24.3C114.334 23.9983 114.582 23.7508 114.883 23.5874C115.185 23.4241 115.528 23.352 115.87 23.38C116.107 23.3523 116.348 23.3721 116.578 23.4383C116.807 23.5045 117.021 23.6158 117.208 23.7657C117.394 23.9156 117.548 24.101 117.662 24.3112C117.776 24.5214 117.846 24.7522 117.87 24.99V25.12C117.269 24.802 116.6 24.6371 115.92 24.64C114.13 24.64 112.32 25.64 112.32 27.45C112.338 27.8359 112.433 28.2144 112.599 28.563C112.765 28.9117 113 29.2234 113.289 29.4798C113.578 29.7362 113.916 29.932 114.282 30.0557C114.648 30.1794 115.035 30.2285 115.42 30.2C115.891 30.2338 116.362 30.1402 116.785 29.9291C117.207 29.718 117.565 29.397 117.82 29H117.88V30H119.68V25.19C119.68 23 118.02 21.73 115.89 21.73L115.84 21.7ZM115.61 28.55C115 28.55 114.15 28.24 114.15 27.49C114.15 26.49 115.21 26.16 116.15 26.16C116.744 26.1453 117.331 26.2904 117.85 26.58C117.787 27.1214 117.531 27.622 117.129 27.9895C116.727 28.357 116.205 28.5667 115.66 28.58L115.61 28.55ZM126.24 22L124.1 27.42H124.04L121.82 22H119.82L123.15 29.58L121.25 33.79H123.2L128.32 22H126.24ZM109.43 30H111.3V17.5H109.43V30Z" fill="white"/>
<path d="M12.9402 7.53997C12.6143 7.93108 12.4497 8.43177 12.4801 8.93997V31.06C12.4497 31.5682 12.6143 32.0689 12.9402 32.46L13.0102 32.53L25.4002 20.15V19.86L13.0102 7.46997L12.9402 7.53997Z" fill="url(#paint0_linear_1071_561)"/>
<path d="M29.5004 24.28L25.4004 20.15V19.86L29.5004 15.72L29.5904 15.77L34.5004 18.56C35.9004 19.35 35.9004 20.65 34.5004 21.45L29.6104 24.23L29.5004 24.28Z" fill="url(#paint1_linear_1071_561)"/>
<path d="M29.6195 24.22L25.3995 20L12.9395 32.46C13.2249 32.7109 13.5889 32.8541 13.9687 32.8651C14.3485 32.876 14.7202 32.754 15.0195 32.52L29.6295 24.22" fill="url(#paint2_linear_1071_561)"/>
<path d="M29.6197 15.78L15.0097 7.47998C14.7103 7.246 14.3387 7.12394 13.9589 7.1349C13.5791 7.14586 13.2151 7.28913 12.9297 7.53998L25.3997 20L29.6197 15.78Z" fill="url(#paint3_linear_1071_561)"/>
<path opacity="0.2" d="M29.4995 24.13L15.0095 32.38C14.7208 32.5959 14.37 32.7125 14.0095 32.7125C13.649 32.7125 13.2982 32.5959 13.0095 32.38L12.9395 32.45L13.0095 32.52C13.2976 32.7374 13.6486 32.855 14.0095 32.855C14.3704 32.855 14.7214 32.7374 15.0095 32.52L29.6195 24.22L29.4995 24.13Z" fill="black"/>
<path opacity="0.12" d="M12.9402 32.32C12.6143 31.9289 12.4497 31.4282 12.4801 30.92V31.07C12.4497 31.5782 12.6143 32.0789 12.9402 32.47L13.0102 32.4L12.9402 32.32ZM34.5002 21.3L29.5002 24.13L29.5902 24.22L34.5002 21.44C34.7788 21.3091 35.0179 21.1071 35.1935 20.8543C35.3691 20.6014 35.4749 20.3068 35.5002 20C35.444 20.2787 35.3246 20.5408 35.1512 20.7662C34.9779 20.9915 34.7551 21.1742 34.5002 21.3Z" fill="black"/>
<path opacity="0.25" d="M15.0107 7.62L34.5007 18.7C34.7557 18.8258 34.9784 19.0085 35.1517 19.2338C35.3251 19.4592 35.4445 19.7213 35.5007 20C35.4754 19.6932 35.3696 19.3986 35.194 19.1457C35.0185 18.8929 34.7793 18.6909 34.5007 18.56L15.0107 7.48C13.6107 6.69 12.4707 7.35 12.4707 8.95V9.1C12.5007 7.49 13.6207 6.83 15.0107 7.62Z" fill="white"/>
</g>
</g>
<defs>
<linearGradient id="paint0_linear_1071_561" x1="24.3002" y1="8.70997" x2="7.52014" y2="25.49" gradientUnits="userSpaceOnUse">
<stop stop-color="#00A0FF"/>
<stop offset="0.01" stop-color="#00A1FF"/>
<stop offset="0.26" stop-color="#00BEFF"/>
<stop offset="0.51" stop-color="#00D2FF"/>
<stop offset="0.76" stop-color="#00DFFF"/>
<stop offset="1" stop-color="#00E3FF"/>
</linearGradient>
<linearGradient id="paint1_linear_1071_561" x1="36.3304" y1="20" x2="12.1404" y2="20" gradientUnits="userSpaceOnUse">
<stop stop-color="#FFE000"/>
<stop offset="0.41" stop-color="#FFBD00"/>
<stop offset="0.78" stop-color="#FFA500"/>
<stop offset="1" stop-color="#FF9C00"/>
</linearGradient>
<linearGradient id="paint2_linear_1071_561" x1="27.3295" y1="22.3" x2="4.56945" y2="45.05" gradientUnits="userSpaceOnUse">
<stop stop-color="#FF3A44"/>
<stop offset="1" stop-color="#C31162"/>
</linearGradient>
<linearGradient id="paint3_linear_1071_561" x1="9.79968" y1="0.179988" x2="19.9597" y2="10.34" gradientUnits="userSpaceOnUse">
<stop stop-color="#32A071"/>
<stop offset="0.07" stop-color="#2DA771"/>
<stop offset="0.48" stop-color="#15CF74"/>
<stop offset="0.8" stop-color="#06E775"/>
<stop offset="1" stop-color="#00F076"/>
</linearGradient>
<clipPath id="clip0_1071_561">
<rect width="140" height="40" fill="white"/>
</clipPath>
<clipPath id="clip1_1071_561">
<rect width="135" height="40" fill="white" transform="translate(2.5)"/>
</clipPath>
</defs>
</svg>
