<svg width="16" height="17" viewBox="0 0 16 17" fill="none" xmlns="http://www.w3.org/2000/svg">
<path fill-rule="evenodd" clip-rule="evenodd" d="M10.5195 0.799667C11.2355 0.0837047 12.3962 0.0837047 13.1122 0.799667L14.4086 2.09603C15.1246 2.81199 15.1246 3.97279 14.4086 4.68875L13.1122 5.98511L9.2232 2.09603L10.5195 0.799667ZM8.57493 2.74419L12.464 6.63328L4.95433 14.143C4.78241 14.3149 4.54926 14.4115 4.30614 14.4115H1.25509C1.00195 14.4115 0.796757 14.2062 0.796757 13.9531V10.9021C0.796757 10.6589 0.893328 10.4258 1.06524 10.2539L8.57493 2.74419ZM1.37305 15.5449C0.993354 15.5449 0.685547 15.8527 0.685547 16.2324C0.685547 16.6122 0.993354 16.9199 1.37305 16.9199H14.6647C15.0444 16.9199 15.3522 16.6122 15.3522 16.2324C15.3522 15.8527 15.0444 15.5449 14.6647 15.5449H1.37305Z" fill="#00798A"/>
</svg>
