<svg width="17" height="18" viewBox="0 0 17 18" fill="none" xmlns="http://www.w3.org/2000/svg">
<path fill-rule="evenodd" clip-rule="evenodd" d="M12.4648 7.625C12.4648 10.6626 10.0024 13.125 6.96484 13.125C3.92728 13.125 1.46484 10.6626 1.46484 7.625C1.46484 4.58743 3.92728 2.125 6.96484 2.125C10.0024 2.125 12.4648 4.58743 12.4648 7.625ZM13.8398 7.625C13.8398 11.4219 10.7618 14.5 6.96484 14.5C3.16788 14.5 0.0898438 11.4219 0.0898438 7.625C0.0898438 3.82804 3.16788 0.75 6.96484 0.75C10.7618 0.75 13.8398 3.82804 13.8398 7.625ZM12.4371 14.0694L11.9669 13.5993C12.3188 13.3044 12.6442 12.979 12.9391 12.6271L13.4093 13.0972L16.1593 15.8472C16.4278 16.1157 16.4278 16.551 16.1593 16.8194C15.8908 17.0879 15.4556 17.0879 15.1871 16.8194L12.4371 14.0694Z" fill="#707070"/>
</svg>
