<svg width="20" height="20" viewBox="0 0 20 20" fill="none" xmlns="http://www.w3.org/2000/svg">
<path fill-rule="evenodd" clip-rule="evenodd" d="M9.99935 17.0834C13.9113 17.0834 17.0827 13.9121 17.0827 10.0001C17.0827 6.08806 13.9113 2.91675 9.99935 2.91675C6.08733 2.91675 2.91602 6.08806 2.91602 10.0001C2.91602 13.9121 6.08733 17.0834 9.99935 17.0834ZM9.99935 18.3334C14.6017 18.3334 18.3327 14.6024 18.3327 10.0001C18.3327 5.39771 14.6017 1.66675 9.99935 1.66675C5.39697 1.66675 1.66602 5.39771 1.66602 10.0001C1.66602 14.6024 5.39697 18.3334 9.99935 18.3334Z" fill="#707070"/>
<path fill-rule="evenodd" clip-rule="evenodd" d="M15.4419 7.05806C15.686 7.30213 15.686 7.69786 15.4419 7.94194L9.65916 13.7247C8.92691 14.4569 7.73974 14.457 7.00751 13.7247L4.55806 11.2752C4.31398 11.0312 4.31398 10.6355 4.55806 10.3914C4.80213 10.1473 5.19786 10.1473 5.44194 10.3914L7.89139 12.8408C8.13546 13.0849 8.53116 13.0849 8.77525 12.8408L14.5581 7.05806C14.8022 6.81398 15.1978 6.81398 15.4419 7.05806Z" fill="#707070"/>
</svg>
