<svg width="41" height="41" viewBox="0 0 41 41" fill="none" xmlns="http://www.w3.org/2000/svg">
<g clip-path="url(#clip0_1071_485)">
<g clip-path="url(#clip1_1071_485)">
<g clip-path="url(#clip2_1071_485)">
<path d="M16.2694 0.650757C24.8956 0.650757 31.8885 7.64364 31.8885 16.2698C31.8885 19.6421 30.8197 22.7648 29.0026 25.3176L40.7763 37.0952L37.0949 40.7766L25.3172 29.0029C22.7644 30.8201 19.6418 31.8888 16.2694 31.8888C7.64328 31.8888 0.650391 24.896 0.650391 16.2698C0.650391 7.64364 7.64328 0.650757 16.2694 0.650757ZM16.2694 5.85711C10.5187 5.85711 5.85674 10.519 5.85674 16.2698C5.85674 22.0206 10.5187 26.6825 16.2694 26.6825C22.0202 26.6825 26.6821 22.0206 26.6821 16.2698C26.6821 10.519 22.0202 5.85711 16.2694 5.85711Z" fill="#008294"/>
</g>
</g>
</g>
<defs>
<clipPath id="clip0_1071_485">
<rect width="41" height="41" fill="white"/>
</clipPath>
<clipPath id="clip1_1071_485">
<rect width="41" height="41" fill="white"/>
</clipPath>
<clipPath id="clip2_1071_485">
<rect width="41" height="41" fill="white"/>
</clipPath>
</defs>
</svg>
