<svg width="21" height="20" viewBox="0 0 21 20" fill="none" xmlns="http://www.w3.org/2000/svg">
<g clip-path="url(#clip0_1071_452)">
<g clip-path="url(#clip1_1071_452)">
<g clip-path="url(#clip2_1071_452)">
<path fill-rule="evenodd" clip-rule="evenodd" d="M6.51953 14.6418C6.51952 14.6418 6.51954 14.6419 6.51953 14.6418C7.00739 14.8102 7.51853 14.9185 8.04181 14.9601C8.0418 14.9601 8.04182 14.9601 8.04181 14.9601C7.51853 14.9185 7.00739 14.8102 6.51953 14.6418ZM8.90725 14.9679C8.90723 14.9679 8.90725 14.9679 8.90725 14.9679V14.9679ZM11.0433 19.7194C8.96391 19.1623 7.41681 17.6101 6.77703 15.7124C7.30825 15.8476 7.85846 15.9225 8.4178 15.9313C9.01221 17.0772 10.0678 17.9791 11.413 18.3395C13.9534 19.0202 16.5646 17.5127 17.2452 14.9724L18.6009 9.91276C18.6689 9.65876 18.5183 9.39763 18.2642 9.32956L15.6764 8.63615C15.6652 8.12889 15.5995 7.61549 15.4749 7.10321L18.6339 7.94967C19.6501 8.22193 20.253 9.26639 19.9808 10.2825L18.6251 15.3421C17.7402 18.6446 14.3457 20.6043 11.0433 19.7194ZM10.0533 15.7885C9.81925 16.0226 9.46306 16.0602 9.18971 15.9013C9.4862 15.8736 9.78394 15.827 10.0815 15.7608C10.0721 15.7699 10.0627 15.7791 10.0533 15.7885ZM12.3532 15.1722C12.2002 15.1312 12.0441 15.1057 11.8873 15.0958C12.4361 14.8047 12.9366 14.4469 13.381 14.0355C13.7689 14.2211 14.1242 14.4718 14.4307 14.7783C14.9035 15.2511 15.2436 15.8401 15.4167 16.4861C15.5188 16.8671 15.2927 17.2588 14.9116 17.3609C14.5306 17.463 14.1388 17.2369 14.0368 16.8558C13.9286 16.4521 13.7161 16.084 13.4206 15.7885C13.125 15.493 12.7568 15.2804 12.3532 15.1722ZM14.2148 13.4031C14.1726 13.361 14.1324 13.3169 14.0946 13.271C14.4336 12.8498 14.7239 12.3916 14.9597 11.906C15.0245 11.9833 15.0738 12.0757 15.1017 12.1795C15.1233 12.2603 15.1658 12.3339 15.2249 12.393C15.284 12.4521 15.3576 12.4947 15.4384 12.5163C15.5191 12.5379 15.6042 12.5379 15.6848 12.5163C15.7656 12.4947 15.8392 12.4521 15.8984 12.393C16.1773 12.1141 16.6295 12.1141 16.9085 12.393C17.1874 12.672 17.1874 13.1242 16.9085 13.4031C16.6721 13.6396 16.3776 13.8096 16.0547 13.8962C15.7317 13.9827 15.3916 13.9827 15.0687 13.8962C14.7457 13.8096 14.4512 13.6396 14.2148 13.4031Z" fill="#FFAD43"/>
<path fill-rule="evenodd" clip-rule="evenodd" d="M11.1942 2.15865L2.9148 4.37709C2.66077 4.44516 2.51002 4.70628 2.57808 4.96031L3.93381 10.0199C4.61447 12.5602 7.22561 14.0677 9.76592 13.3871C12.3062 12.7064 13.8137 10.0953 13.1331 7.55498L11.7773 2.49537C11.7093 2.24133 11.4482 2.09058 11.1942 2.15865ZM2.54506 2.9972C1.52893 3.26948 0.925918 4.31392 1.19819 5.33005L2.55391 10.3896C3.43879 13.692 6.83325 15.6518 10.1356 14.767C13.4381 13.8821 15.3978 10.4876 14.513 7.18524L13.1573 2.12563C12.885 1.10949 11.8406 0.506485 10.8244 0.778755L2.54506 2.9972Z" fill="#FFAD43"/>
<path fill-rule="evenodd" clip-rule="evenodd" d="M5.49441 6.64395C5.434 6.66014 5.37738 6.68807 5.32776 6.72613C5.27815 6.7642 5.23652 6.81167 5.20526 6.86583C5.17399 6.91998 5.15369 6.97976 5.14553 7.04176C5.13737 7.10376 5.1415 7.16676 5.15769 7.22716C5.25979 7.60821 5.03366 7.99989 4.65261 8.10198C4.27156 8.20409 3.87989 7.97795 3.77779 7.5969C3.71306 7.3553 3.69653 7.1033 3.72919 6.8553C3.76184 6.6073 3.84301 6.36816 3.96808 6.15154C4.09315 5.93491 4.25966 5.74505 4.4581 5.59277C4.65655 5.4405 4.88305 5.3288 5.12467 5.26406C5.36628 5.19932 5.61828 5.1828 5.86628 5.21546C6.11428 5.2481 6.35341 5.32928 6.57004 5.45435C6.78666 5.57942 6.97653 5.74592 7.1288 5.94437C7.28108 6.14282 7.39277 6.36931 7.45751 6.61093C7.55961 6.99198 7.33349 7.38365 6.95244 7.48575C6.57139 7.58785 6.17971 7.36172 6.07762 6.98068C6.06143 6.92027 6.0335 6.86365 5.99544 6.81403C5.95737 6.76442 5.9099 6.72279 5.85575 6.69152C5.80159 6.66026 5.74181 6.63996 5.67981 6.6318C5.61781 6.62364 5.55481 6.62777 5.49441 6.64395Z" fill="#FFAD43"/>
<path fill-rule="evenodd" clip-rule="evenodd" d="M10.094 5.41141C9.97203 5.4441 9.86802 5.52391 9.80487 5.63329C9.74173 5.74266 9.72461 5.87264 9.7573 5.99463C9.8594 6.37567 9.63327 6.76735 9.25222 6.86944C8.87117 6.97155 8.47951 6.74541 8.37741 6.36437C8.24666 5.87641 8.31511 5.35649 8.5677 4.919C8.82028 4.48151 9.23632 4.16227 9.72428 4.03152C10.2122 3.90077 10.7321 3.96922 11.1696 4.22181C11.6072 4.47439 11.9264 4.89043 12.0571 5.37839C12.1593 5.75944 11.9331 6.15111 11.552 6.25321C11.171 6.35531 10.7794 6.12918 10.6773 5.74814C10.6445 5.62615 10.5647 5.52214 10.4554 5.45898C10.346 5.39584 10.216 5.37873 10.094 5.41141Z" fill="#FFAD43"/>
<path fill-rule="evenodd" clip-rule="evenodd" d="M5.25608 9.88783C5.53503 9.60888 5.98729 9.60888 6.26623 9.88783C6.62087 10.2424 7.06262 10.4975 7.54705 10.6273C8.0315 10.7571 8.54158 10.7571 9.02603 10.6273C9.51046 10.4975 9.95221 10.2424 10.3068 9.88783C10.6615 9.53317 10.9165 9.09142 11.0463 8.60699C11.1484 8.22594 11.5401 7.99981 11.9211 8.10191C12.3021 8.20401 12.5283 8.59567 12.4262 8.97672C12.2315 9.70336 11.8489 10.366 11.317 10.8979C10.785 11.4299 10.1224 11.8125 9.39576 12.0072C8.6691 12.2019 7.90398 12.2019 7.17731 12.0072C6.45064 11.8125 5.78803 11.4299 5.25608 10.8979C4.97714 10.619 4.97714 10.1668 5.25608 9.88783Z" fill="#FFAD43"/>
</g>
</g>
</g>
<defs>
<clipPath id="clip0_1071_452">
<rect width="20" height="20" fill="white" transform="translate(0.5)"/>
</clipPath>
<clipPath id="clip1_1071_452">
<rect width="20" height="20" fill="white" transform="translate(0.5)"/>
</clipPath>
<clipPath id="clip2_1071_452">
<rect width="20" height="20" fill="white" transform="translate(0.5)"/>
</clipPath>
</defs>
</svg>
