<svg width="21" height="20" viewBox="0 0 21 20" fill="none" xmlns="http://www.w3.org/2000/svg">
<g clip-path="url(#clip0_1071_462)">
<g clip-path="url(#clip1_1071_462)">
<g clip-path="url(#clip2_1071_462)">
<path d="M18.2784 0.833313H2.72287C1.95581 0.833313 1.33398 1.45514 1.33398 2.2222V17.7778C1.33398 18.5448 1.95581 19.1666 2.72287 19.1666H18.2784C19.0455 19.1666 19.6673 18.5448 19.6673 17.7778V2.2222C19.6673 1.45514 19.0455 0.833313 18.2784 0.833313Z" stroke="#008294" stroke-width="1.66667"/>
<path d="M10.5026 11.6665C11.4231 11.6665 12.1693 10.9203 12.1693 9.99986C12.1693 9.07938 11.4231 8.33319 10.5026 8.33319C9.58213 8.33319 8.83594 9.07938 8.83594 9.99986C8.83594 10.9203 9.58213 11.6665 10.5026 11.6665Z" fill="#008294"/>
<path d="M14.9323 16.1035C15.8528 16.1035 16.599 15.3573 16.599 14.4369C16.599 13.5164 15.8528 12.7702 14.9323 12.7702C14.0118 12.7702 13.2656 13.5164 13.2656 14.4369C13.2656 15.3573 14.0118 16.1035 14.9323 16.1035Z" fill="#008294"/>
<path d="M6.06706 7.22982C6.98753 7.22982 7.73372 6.48363 7.73372 5.56315C7.73372 4.64268 6.98753 3.89648 6.06706 3.89648C5.14658 3.89648 4.40039 4.64268 4.40039 5.56315C4.40039 6.48363 5.14658 7.22982 6.06706 7.22982Z" fill="#008294"/>
</g>
</g>
</g>
<defs>
<clipPath id="clip0_1071_462">
<rect width="20" height="20" fill="white" transform="translate(0.5)"/>
</clipPath>
<clipPath id="clip1_1071_462">
<rect width="20" height="20" fill="white" transform="translate(0.5)"/>
</clipPath>
<clipPath id="clip2_1071_462">
<rect width="20" height="20" fill="white" transform="translate(0.5)"/>
</clipPath>
</defs>
</svg>
