<svg width="21" height="20" viewBox="0 0 21 20" fill="none" xmlns="http://www.w3.org/2000/svg">
<g clip-path="url(#clip0_1071_440)">
<g clip-path="url(#clip1_1071_440)">
<path fill-rule="evenodd" clip-rule="evenodd" d="M12.4851 15.6193C13.2281 14.1331 13.729 11.9801 13.729 9.5239C13.729 6.504 11.8472 3.73973 10.489 2.16414C10.4633 2.13428 10.4423 2.12194 10.4303 2.11645C10.4173 2.1105 10.4058 2.10844 10.3956 2.10844C10.3855 2.10844 10.3739 2.1105 10.3609 2.11645C10.349 2.12194 10.328 2.13428 10.3022 2.16414C8.94405 3.73973 7.0623 6.504 7.0623 9.5239C7.0623 11.9801 7.56313 14.1331 8.30621 15.6193C9.09201 17.1909 9.91328 17.6191 10.3956 17.6191C10.8779 17.6191 11.6993 17.1909 12.4851 15.6193ZM15.15 9.16163C15.7191 9.03253 16.2808 8.95496 16.8096 8.91226C17.1918 7.50294 17.1335 5.9878 16.9683 4.828C16.9636 4.7956 16.955 4.78037 16.9516 4.77515C16.9476 4.76898 16.944 4.76599 16.9413 4.76425C16.9385 4.76252 16.9342 4.76051 16.927 4.75955C16.9208 4.75874 16.9033 4.75743 16.872 4.76716C16.1223 5.00072 15.2489 5.34614 14.4205 5.83465C14.2432 5.37995 14.042 4.9432 13.8266 4.52765C14.7544 3.99754 15.6918 3.63853 16.4472 3.40323C17.3534 3.12094 18.2488 3.68694 18.3826 4.62657C18.542 5.74607 18.6329 7.31023 18.2897 8.87255C18.3307 8.87357 18.3711 8.87475 18.411 8.87607C19.3596 8.90759 20.019 9.73666 19.8363 10.668C19.503 12.3667 18.6751 14.9965 16.6417 16.6137C14.5237 18.2984 12.2049 19.185 10.5008 19.1117C8.79663 19.185 6.47784 18.2984 4.35976 16.6137C2.32648 14.9965 1.49853 12.3667 1.16525 10.668C0.982516 9.73666 1.64195 8.90759 2.59054 8.87607C2.63044 8.87475 2.67088 8.87357 2.71184 8.87255C2.36871 7.31023 2.45951 5.74607 2.61894 4.62657C2.75277 3.68694 3.64823 3.12094 4.5544 3.40323C5.26558 3.62479 6.13826 3.95602 7.01236 4.43651C6.79466 4.84927 6.59063 5.28351 6.40973 5.73598C5.63322 5.29921 4.82774 4.98467 4.12951 4.76716C4.09826 4.75743 4.08077 4.75874 4.0746 4.75955C4.06732 4.76051 4.06306 4.76252 4.06032 4.76425C4.05757 4.76599 4.05393 4.76898 4.04994 4.77515C4.04655 4.78037 4.03786 4.7956 4.03325 4.828C3.86807 5.9878 3.80968 7.50294 4.19197 8.91226C4.65611 8.94974 5.1456 9.01408 5.64317 9.11657C5.79962 5.73214 7.8642 2.80445 9.22018 1.23141C9.85408 0.496026 10.9372 0.496025 11.5711 1.23141C12.9331 2.81142 15.0099 5.75815 15.15 9.16163ZM13.3485 16.996C14.3132 15.469 14.9753 13.2105 15.1252 10.6393C16.254 10.335 17.4198 10.2725 18.3636 10.3039C18.3963 10.3049 18.4123 10.3119 18.4179 10.3148C18.4245 10.318 18.4278 10.3213 18.4298 10.3239C18.4318 10.3264 18.4343 10.3305 18.436 10.3376C18.4376 10.3436 18.4408 10.3609 18.4344 10.3929C18.1183 12.0042 17.3745 14.2055 15.7525 15.4957C14.9371 16.1443 14.1172 16.6409 13.3485 16.996ZM7.35394 16.8519C6.67347 16.5106 5.95956 16.0609 5.24903 15.4957C3.62704 14.2055 2.88321 12.0042 2.5671 10.3929C2.56079 10.3609 2.56399 10.3436 2.56547 10.3376C2.5672 10.3305 2.56967 10.3264 2.57169 10.3239C2.57371 10.3213 2.57707 10.318 2.58363 10.3148C2.58919 10.3119 2.60527 10.3049 2.63797 10.3039C3.52236 10.2745 4.60174 10.3275 5.66293 10.5847C5.80224 13.0987 6.43081 15.3175 7.35394 16.8519Z" fill="#31775A"/>
</g>
</g>
<defs>
<clipPath id="clip0_1071_440">
<rect width="20" height="20" fill="white" transform="translate(0.5)"/>
</clipPath>
<clipPath id="clip1_1071_440">
<rect width="20" height="20" fill="white" transform="translate(0.5)"/>
</clipPath>
</defs>
</svg>
