<svg width="21" height="20" viewBox="0 0 21 20" fill="none" xmlns="http://www.w3.org/2000/svg">
<g clip-path="url(#clip0_1071_428)">
<g clip-path="url(#clip1_1071_428)">
<path fill-rule="evenodd" clip-rule="evenodd" d="M6.47957 2.23322L7.43322 3.25507C7.47641 3.28658 7.51766 3.32252 7.5564 3.36298L8.93942 4.80713L10.0863 2.23321L6.47957 2.23322ZM4.76901 2.39895L6.01682 3.73599L2.00901 12.4476C1.85238 12.7881 1.92073 13.1898 2.18116 13.4593L3.52389 14.8488C3.5443 14.8778 3.56724 14.9056 3.59273 14.9319L7.25882 18.712C7.55845 19.0209 7.97047 19.1953 8.40085 19.1953H13.2436C13.5842 19.1953 13.8664 18.9457 13.9173 18.6194C14.0164 18.5566 14.1055 18.4729 14.1779 18.3683L18.8735 11.5882C19.2615 11.0281 18.9166 10.2774 18.2777 10.1735L17.1845 6.81787C16.9885 6.21612 16.2528 5.99383 15.7564 6.38633L11.3013 9.90826C11.2064 9.98326 11.1323 10.0692 11.0773 10.1614H8.15898C8.12319 10.1614 8.08816 10.1633 8.05391 10.1672L9.70922 6.42495C9.73819 6.35945 9.75892 6.2918 9.77165 6.22336C9.81654 6.16592 9.85549 6.10166 9.88705 6.03082L11.6168 2.14866C11.8847 1.5474 11.4446 0.869565 10.7865 0.869568L5.43363 0.869591C4.63876 0.869594 4.22668 1.81783 4.76901 2.39895ZM12.2642 17.8316L7.44129 11.6285C7.43398 11.6192 7.4269 11.6097 7.42004 11.6002L5.80411 15.2533L8.2377 17.7626C8.2805 17.8067 8.33937 17.8316 8.40085 17.8316H12.2642ZM3.37773 12.7352L7.02222 4.81329L8.31723 6.20092L4.78344 14.1899L3.37773 12.7352ZM9.08816 11.5251L13.4094 17.083L17.2547 11.5305H11.865C11.8295 11.5305 11.7948 11.5286 11.761 11.5251H9.08816ZM16.8396 10.1614H13.1798L16.0901 7.86076L16.8396 10.1614Z" fill="#FFAD43"/>
</g>
</g>
<defs>
<clipPath id="clip0_1071_428">
<rect width="20" height="20" fill="white" transform="translate(0.5)"/>
</clipPath>
<clipPath id="clip1_1071_428">
<rect width="18.1818" height="20" fill="white" transform="translate(1.4082)"/>
</clipPath>
</defs>
</svg>
