<svg width="21" height="20" viewBox="0 0 21 20" fill="none" xmlns="http://www.w3.org/2000/svg">
<g clip-path="url(#clip0_1071_422)">
<g clip-path="url(#clip1_1071_422)">
<path fill-rule="evenodd" clip-rule="evenodd" d="M1.17773 17.2592C1.63284 17.4687 2.09631 17.6633 2.56749 17.8421C5.00026 18.7654 7.63873 19.2709 10.3953 19.2709C13.1528 19.2709 15.7922 18.765 18.2257 17.8411C18.6968 17.6622 19.1602 17.4676 19.6153 17.258L18.9029 15.9345L17.9662 14.1943L17.1895 12.7511L11.2486 1.714L10.3968 0.131592L9.54508 1.714L1.89016 15.9356L1.17773 17.2592ZM10.3968 3.29641L15.7784 13.2944C14.0875 13.8597 12.278 14.1659 10.397 14.1659C8.51586 14.1659 6.70628 13.8596 5.01536 13.2943L10.3968 3.29641ZM10.397 15.7995C8.23548 15.7995 6.16014 15.4307 4.23044 14.7526L3.28504 16.509C5.49937 17.3249 7.89387 17.7709 10.3953 17.7709C12.8977 17.7709 15.2931 17.3246 17.5081 16.508L16.5633 14.7527C14.6336 15.4307 12.5584 15.7995 10.397 15.7995ZM12.0003 12C12.5526 12 13.0003 11.5523 13.0003 11C13.0003 10.4477 12.5526 10 12.0003 10C11.448 10 11.0002 10.4477 11.0002 11C11.0002 11.5523 11.448 12 12.0003 12ZM9.68702 12C9.68702 12.5523 9.2393 13 8.68702 13C8.13473 13 7.68702 12.5523 7.68702 12C7.68702 11.4477 8.13473 11 8.68702 11C9.2393 11 9.68702 11.4477 9.68702 12ZM10.3259 9C10.8782 9 11.326 8.55229 11.326 8C11.326 7.44771 10.8782 7 10.3259 7C9.77365 7 9.32593 7.44771 9.32593 8C9.32593 8.55229 9.77365 9 10.3259 9Z" fill="#7A1D47"/>
</g>
</g>
<defs>
<clipPath id="clip0_1071_422">
<rect width="20" height="20" fill="white" transform="translate(0.5)"/>
</clipPath>
<clipPath id="clip1_1071_422">
<rect width="19" height="20" fill="white" transform="translate(1)"/>
</clipPath>
</defs>
</svg>
