<svg width="21" height="20" viewBox="0 0 21 20" fill="none" xmlns="http://www.w3.org/2000/svg">
<g clip-path="url(#clip0_1071_446)">
<g clip-path="url(#clip1_1071_446)">
<g clip-path="url(#clip2_1071_446)">
<path fill-rule="evenodd" clip-rule="evenodd" d="M15.936 9.4921H17.1463C18.3827 9.4921 19.3529 10.5525 19.2434 11.7841L18.5905 19.117C18.5542 19.5243 18.2131 19.8365 17.8041 19.8365C17.3405 19.8365 16.9766 19.4388 17.0178 18.977L17.6706 11.6441C17.698 11.3362 17.4555 11.071 17.1463 11.071H2.801C2.49189 11.071 2.24935 11.3362 2.27676 11.6441L2.92957 18.977C2.97067 19.4388 2.60685 19.8365 2.1432 19.8365C1.73432 19.8365 1.39309 19.5243 1.35684 19.117L0.704027 11.7841C0.594392 10.5525 1.5646 9.4921 2.801 9.4921H3.90922C3.80382 8.74041 3.75041 8.03156 3.75041 7.40728C3.75041 6.99158 3.77409 6.58408 3.82104 6.18758H1.28947C0.853459 6.18758 0.5 5.83413 0.5 5.39811C0.5 4.9621 0.853459 4.60863 1.28947 4.60863H3.92105C3.99706 4.60863 4.07057 4.61938 4.14013 4.63943C4.93196 2.02273 6.91295 0.182434 9.92262 0.182434C12.9453 0.182434 14.9303 2.03856 15.7153 4.67317C15.8113 4.63165 15.9172 4.60863 16.0284 4.60863H18.66C19.096 4.60863 19.4495 4.9621 19.4495 5.39811C19.4495 5.83413 19.096 6.18758 18.66 6.18758H16.0284L16.0242 6.18757C16.0712 6.58408 16.0948 6.99157 16.0948 7.40728C16.0948 8.03156 16.0415 8.74041 15.936 9.4921ZM14.3403 9.4921C14.4567 8.73104 14.5159 8.01777 14.5159 7.40728C14.5159 5.68225 14.0427 4.24976 13.2714 3.28394C12.5309 2.35699 11.4445 1.76138 9.92262 1.76138C8.40072 1.76138 7.31429 2.35699 6.57393 3.28394C5.80251 4.24976 5.32936 5.68225 5.32936 7.40728C5.32936 8.01777 5.38847 8.73104 5.50497 9.4921H14.3403ZM8.77868 6.16427C8.77868 6.45494 8.54304 6.69058 8.25237 6.69058C7.96168 6.69058 7.72605 6.45494 7.72605 6.16427C7.72605 5.87359 7.96168 5.63795 8.25237 5.63795C8.54304 5.63795 8.77868 5.87359 8.77868 6.16427ZM9.83132 6.16427C9.83132 7.0363 9.12439 7.74321 8.25237 7.74321C7.38034 7.74321 6.67342 7.0363 6.67342 6.16427C6.67342 5.29223 7.38034 4.58532 8.25237 4.58532C9.12439 4.58532 9.83132 5.29223 9.83132 6.16427ZM11.6971 6.69058C11.9877 6.69058 12.2234 6.45494 12.2234 6.16427C12.2234 5.87359 11.9877 5.63795 11.6971 5.63795C11.4064 5.63795 11.1707 5.87359 11.1707 6.16427C11.1707 6.45494 11.4064 6.69058 11.6971 6.69058ZM11.6971 7.74321C12.5691 7.74321 13.276 7.0363 13.276 6.16427C13.276 5.29223 12.5691 4.58532 11.6971 4.58532C10.825 4.58532 10.1181 5.29223 10.1181 6.16427C10.1181 7.0363 10.825 7.74321 11.6971 7.74321ZM5.88292 15.2631V14.2105H9.04081V15.2631H5.88292ZM4.30397 13.1579C4.30397 12.8672 4.53961 12.6315 4.83028 12.6315H10.0934C10.3841 12.6315 10.6198 12.8672 10.6198 13.1579V16.3158C10.6198 16.6064 10.3841 16.8421 10.0934 16.8421H4.83028C4.53961 16.8421 4.30397 16.6064 4.30397 16.3158V13.1579ZM11.4328 13.5986C11.4328 13.1626 11.7863 12.8091 12.2223 12.8091H14.8539C15.2899 12.8091 15.6434 13.1626 15.6434 13.5986C15.6434 14.0346 15.2899 14.3881 14.8539 14.3881H12.2223C11.7863 14.3881 11.4328 14.0346 11.4328 13.5986ZM12.2223 14.9597C11.7863 14.9597 11.4328 15.3131 11.4328 15.7491C11.4328 16.1851 11.7863 16.5386 12.2223 16.5386H14.8539C15.2899 16.5386 15.6434 16.1851 15.6434 15.7491C15.6434 15.3131 15.2899 14.9597 14.8539 14.9597H12.2223Z" fill="#7A1D47"/>
</g>
</g>
</g>
<defs>
<clipPath id="clip0_1071_446">
<rect width="20" height="20" fill="white" transform="translate(0.5)"/>
</clipPath>
<clipPath id="clip1_1071_446">
<rect width="20" height="20" fill="white" transform="translate(0.5)"/>
</clipPath>
<clipPath id="clip2_1071_446">
<rect width="20" height="20" fill="white" transform="translate(0.5)"/>
</clipPath>
</defs>
</svg>
