<svg width="21" height="20" viewBox="0 0 21 20" fill="none" xmlns="http://www.w3.org/2000/svg">
<g clip-path="url(#clip0_1071_416)">
<g clip-path="url(#clip1_1071_416)">
<g clip-path="url(#clip2_1071_416)">
<path fill-rule="evenodd" clip-rule="evenodd" d="M6.1843 2.68788L4.25307 5.08452C5.06068 5.50558 5.40802 6.58849 4.82221 7.42436L3.28025 9.62455H8.79283L7.25087 7.42436C6.61434 6.51611 7.07956 5.31619 8.03985 4.99062L6.1843 2.68788ZM9.89813 4.90609L6.57363 0.780393C6.37349 0.532024 5.9951 0.532024 5.79497 0.780393L2.47046 4.90609L2.46134 4.91741L2.30679 5.10921L1.91746 5.59237C1.73999 5.81261 1.78757 6.10519 1.96584 6.27283C2.00873 6.31317 2.05918 6.34627 2.11589 6.36939C2.17352 6.3929 2.23762 6.40609 2.30679 6.40609H2.92729H3.17361H3.18815H3.36926H3.51195C3.59288 6.40609 3.64029 6.49721 3.59384 6.56348L3.51195 6.68033L2.79086 7.70924L2.6529 7.90609L1.44856 9.62455L1.44602 9.62817L1.35829 9.75334L0.948836 10.3376C0.716606 10.669 0.953654 11.1245 1.35829 11.1245H2.07173H2.22458H2.22901H5.30712V13.8343C4.92691 13.7963 4.54123 13.7768 4.15101 13.7768C3.44817 13.7768 2.76007 13.8399 2.09206 13.9608C1.66285 14.0384 1.41973 14.4837 1.5555 14.8982C1.67808 15.2724 2.06769 15.4861 2.45586 15.4198C3.00631 15.3258 3.57259 15.2768 4.15101 15.2768C7.34934 15.2768 10.1983 16.7795 12.0279 19.1216C12.2362 19.3882 12.5863 19.5085 12.9078 19.4032C13.3826 19.2477 13.5834 18.6852 13.2797 18.2885C12.5986 17.3988 11.7903 16.6116 10.8821 15.9539C12.7031 14.028 15.2822 12.8263 18.142 12.8263C18.6303 12.8263 19.1104 12.8613 19.58 12.929C20.0529 12.9972 20.5006 12.6463 20.5006 12.1685C20.5006 11.819 20.2558 11.5149 19.9104 11.4616C19.334 11.3725 18.7434 11.3263 18.142 11.3263C17.7586 11.3263 17.3796 11.3451 17.0058 11.3818V9.21951H18.6882H18.6926H18.8455H19.5589C19.9635 9.21951 20.2006 8.76392 19.9684 8.43255L19.5589 7.84831L19.4712 7.72314L19.4686 7.71951L18.8625 6.85466L18.7246 6.65781L18.0035 5.6289L17.9216 5.51205C17.8751 5.44578 17.9225 5.35466 18.0035 5.35466H18.1275H18.142H18.1462H18.3884H19.0089C19.1633 5.35466 19.2924 5.28889 19.3809 5.18946C19.4094 5.15741 19.4337 5.12186 19.4532 5.08389C19.538 4.91923 19.5336 4.70902 19.3982 4.54094L19.0089 4.05778L18.8543 3.86598L18.8452 3.85466L16.4112 0.834104C16.2111 0.585735 15.8327 0.585735 15.6325 0.834104L13.1986 3.85466L13.1894 3.86598L13.0349 4.05778L12.6456 4.54094C12.5769 4.6261 12.542 4.72207 12.5352 4.81746C12.5344 4.82868 12.534 4.83989 12.534 4.85107C12.5333 5.11002 12.7371 5.35466 13.0349 5.35466H13.6554H13.7982C13.8319 5.35466 13.8599 5.3705 13.8776 5.39378L13.8809 5.39848C13.9027 5.43075 13.9059 5.47523 13.8801 5.51205L13.7982 5.6289L13.0771 6.65781L13.0349 6.71804L12.9406 6.8526L12.333 7.71951L12.3305 7.72314L12.2428 7.84831L11.8333 8.43255C11.6011 8.76392 11.8381 9.21951 12.2428 9.21951H12.9562H13.1091H13.1135H15.5058V11.6301C13.2351 12.1632 11.224 13.3698 9.69479 15.0277C9.65859 15.0669 9.62785 15.1078 9.60227 15.1498C8.73198 14.6799 7.79417 14.319 6.80712 14.0854V11.1245H9.84408H9.84851H10.0014H10.7148C11.1194 11.1245 11.3564 10.669 11.1242 10.3376L10.7148 9.75334L10.627 9.62817L10.6245 9.62455L9.42018 7.90609L9.28223 7.70924L8.56113 6.68033L8.47924 6.56348C8.4328 6.49721 8.48021 6.40609 8.56113 6.40609H8.70382H9.18045H9.19499H9.4413H9.96026H10.0618C10.1066 6.40609 10.1493 6.40055 10.1895 6.39025C10.5259 6.30403 10.6865 5.88455 10.4511 5.59237L10.0618 5.10921L9.90725 4.91741L9.89813 4.90609ZM14.8261 4.22559L16.0219 2.74159L17.1268 4.11274C16.4176 4.57876 16.1413 5.58547 16.6932 6.37293L17.6369 7.71951H14.1647L15.1085 6.37293C15.6192 5.64414 15.4206 4.72756 14.8261 4.22559Z" fill="#31775A"/>
</g>
</g>
</g>
<defs>
<clipPath id="clip0_1071_416">
<rect width="20" height="20" fill="white" transform="translate(0.5)"/>
</clipPath>
<clipPath id="clip1_1071_416">
<rect width="20" height="20" fill="white" transform="translate(0.5)"/>
</clipPath>
<clipPath id="clip2_1071_416">
<rect width="20" height="20" fill="white" transform="translate(0.5)"/>
</clipPath>
</defs>
</svg>
