<svg width="380" height="269" viewBox="0 0 380 269" fill="none" xmlns="http://www.w3.org/2000/svg">
<mask id="mask0_1071_17" style="mask-type:luminance" maskUnits="userSpaceOnUse" x="0" y="0" width="379" height="269">
<path d="M0.0800781 0H378.922V269H0.0800781V0Z" fill="white"/>
</mask>
<g mask="url(#mask0_1071_17)">
<g style="mix-blend-mode:multiply" opacity="0.212">
<path fill-rule="evenodd" clip-rule="evenodd" d="M300.245 196.605C292.223 210.184 283.184 219.804 272.013 227.628C263.836 233.357 255.069 237.887 245.77 241.279C236.245 244.751 226.358 247.171 216.279 248.701C201.643 250.923 186.944 251.752 172.118 251.097C155.631 250.37 139.657 247.228 124.456 240.804C118.875 238.444 113.294 235.789 108.469 231.886C104.819 228.933 100.664 226.519 97.3702 223.232C92.5782 218.452 88.0132 213.353 83.9662 207.936C75.8242 197.045 71.1702 184.633 69.5012 171.22C68.5862 163.881 67.6422 156.476 67.6892 149.113C67.7402 141.475 68.8882 133.844 69.7142 126.227C70.4112 119.776 71.2192 113.335 72.1892 106.921C73.6082 97.543 74.6502 88.056 76.8792 78.868C79.7172 67.167 82.6402 55.369 88.9012 44.851C94.9692 34.654 102.782 25.958 113.175 20.099C122.274 14.97 132.286 12.781 142.908 12.931C154.643 13.095 165.28 16.862 175.197 22.542C182.441 26.691 189.084 31.885 195.248 37.616C200.327 42.336 205.342 47.176 210.824 51.394C216.595 55.835 222.362 60.376 228.975 63.627L257.049 77.593C265.218 81.786 272.691 87.047 279.828 92.828C285.683 97.569 290.688 103.085 294.849 109.258C302.672 120.866 308.454 133.271 309.588 147.506C310.263 155.97 310.66 164.366 308.776 172.676C307.859 176.725 306.755 180.763 305.32 184.65C303.573 189.383 301.388 193.951 300.245 196.606V196.605Z" fill="#E6A386"/>
</g>
</g>
<path d="M304.43 175.292H96.5427L65.5137 212.674H277.872L304.43 175.292Z" stroke="#FA6666" stroke-width="3.934" stroke-linejoin="round"/>
<path d="M104.828 175.292L115.917 211.664M157.249 175.292L169.346 214.695M209.669 175.292L223.782 214.695M264.106 175.292L275.195 212.674" stroke="#FA6666" stroke-width="3.934" stroke-linecap="round" stroke-linejoin="round"/>
<path d="M290.316 153.065L334.672 214.695" stroke="#FA6666" stroke-width="7.868" stroke-linecap="round" stroke-linejoin="round"/>
<path d="M294.328 169.23H300.628C306.067 169.23 310.477 166.655 310.477 161.391C310.477 156.127 306.067 152.054 300.628 152.054H285.275" stroke="#00455D" stroke-width="1.868" stroke-linecap="round" stroke-linejoin="round"/>
<path d="M294.154 151.044H291.838H285.275L330.254 212.544C330.254 212.544 332.378 217.076 334.694 215.287C337.01 213.498 334.887 210.816 331.991 207.367C329.095 203.918 292.19 151.444 292.19 151.444" stroke="#00455D" stroke-width="1.868" stroke-linecap="round" stroke-linejoin="round"/>
<path d="M306.446 180.036L278.926 217.47H66.3107C62.1237 216.894 63.8477 214.281 63.8477 214.281L96.6097 173.271H301.626" stroke="#00455D" stroke-width="1.868" stroke-linecap="round" stroke-linejoin="round"/>
<path d="M299.389 178.323H269.146L277.949 209.643L299.389 178.323ZM215.718 178.323L225.451 210.654H272.171L262.924 178.323H215.718ZM161.281 178.323L171.706 210.397L218.742 210.654L208.317 178.323H161.281Z" stroke="#00455D" stroke-width="1.868" stroke-linejoin="round"/>
<path d="M107.852 178.323L117.964 210.654H165.313L155.202 178.323H107.852Z" stroke="#353E48" stroke-width="1.868" stroke-linejoin="round"/>
<path d="M70.5527 212.674L97.1267 178.323H102.384L111.885 212.674H70.5527Z" stroke="#00455D" stroke-width="1.705" stroke-linejoin="round"/>
<path fill-rule="evenodd" clip-rule="evenodd" d="M99.7887 215.2C99.7887 235.009 83.9917 251.067 64.5057 251.067C45.0197 251.067 29.2227 235.009 29.2227 215.2C29.2227 195.391 45.0197 179.333 64.5057 179.333C83.9917 179.333 99.7887 195.391 99.7887 215.2ZM369.956 215.2C369.956 235.009 354.159 251.067 334.673 251.067C315.187 251.067 299.39 235.009 299.39 215.2C299.39 195.391 315.187 179.333 334.673 179.333C354.159 179.333 369.956 195.391 369.956 215.2Z" fill="#FA6666" stroke="#00455D" stroke-width="1.868" stroke-linejoin="round"/>
<path d="M78.6182 214.695C78.6182 221.949 72.7512 227.829 65.5132 227.829C58.2752 227.829 52.4082 221.949 52.4082 214.695C52.4082 207.441 58.2762 201.561 65.5132 201.561C72.7502 201.561 78.6182 207.441 78.6182 214.695Z" stroke="#00455D" stroke-width="1.868" stroke-linejoin="round"/>
<path d="M124.989 214.19C124.992 216.733 123.984 219.172 122.188 220.972C120.392 222.772 117.955 223.785 115.412 223.788C112.867 223.788 110.426 222.777 108.626 220.977C106.826 219.177 105.814 216.736 105.814 214.19C105.814 211.645 106.826 209.203 108.626 207.403C110.426 205.603 112.867 204.592 115.412 204.592C117.955 204.595 120.392 205.608 122.188 207.408C123.984 209.208 124.992 211.647 124.989 214.19Z" fill="#97CAD1"/>
<path d="M124.989 214.19C124.992 216.733 123.984 219.172 122.188 220.972C120.392 222.772 117.955 223.785 115.412 223.788C112.867 223.788 110.426 222.777 108.626 220.977C106.826 219.177 105.814 216.736 105.814 214.19C105.814 211.645 106.826 209.203 108.626 207.403C110.426 205.603 112.867 204.592 115.412 204.592C117.955 204.595 120.392 205.608 122.188 207.408C123.984 209.208 124.992 211.647 124.989 214.19V214.19Z" stroke="#00455D" stroke-width="1.868" stroke-linejoin="round"/>
<path d="M179.427 214.19C179.429 216.733 178.421 219.172 176.626 220.972C174.83 222.772 172.393 223.785 169.85 223.788C167.304 223.788 164.863 222.777 163.063 220.977C161.263 219.177 160.252 216.736 160.252 214.19C160.252 211.645 161.263 209.203 163.063 207.403C164.863 205.603 167.304 204.592 169.85 204.592C172.393 204.595 174.83 205.608 176.626 207.408C178.421 209.208 179.429 211.647 179.427 214.19Z" fill="#97CAD1"/>
<path d="M179.427 214.19C179.429 216.733 178.421 219.172 176.626 220.972C174.83 222.772 172.393 223.785 169.85 223.788C167.304 223.788 164.863 222.777 163.063 220.977C161.263 219.177 160.252 216.736 160.252 214.19C160.252 211.645 161.263 209.203 163.063 207.403C164.863 205.603 167.304 204.592 169.85 204.592C172.393 204.595 174.83 205.608 176.626 207.408C178.421 209.208 179.429 211.647 179.427 214.19V214.19Z" stroke="#00455D" stroke-width="1.868" stroke-linejoin="round"/>
<path d="M233.864 214.19C233.866 216.733 232.858 219.172 231.063 220.972C229.267 222.772 226.829 223.785 224.287 223.788C218.998 223.788 214.711 219.491 214.711 214.19C214.711 208.889 218.998 204.592 224.287 204.592C226.829 204.595 229.267 205.608 231.063 207.408C232.858 209.208 233.866 211.647 233.864 214.19Z" fill="#97CAD1"/>
<path d="M233.864 214.19C233.866 216.733 232.858 219.172 231.063 220.972C229.267 222.772 226.829 223.785 224.287 223.788C218.998 223.788 214.711 219.491 214.711 214.19C214.711 208.889 218.998 204.592 224.287 204.592C226.829 204.595 229.267 205.608 231.063 207.408C232.858 209.208 233.866 211.647 233.864 214.19V214.19Z" stroke="#00455D" stroke-width="1.868" stroke-linejoin="round"/>
<path d="M287.292 214.19C287.294 216.733 286.287 219.172 284.491 220.972C282.695 222.772 280.258 223.785 277.715 223.788C275.17 223.788 272.728 222.777 270.928 220.977C269.128 219.177 268.117 216.736 268.117 214.19C268.117 211.645 269.128 209.203 270.928 207.403C272.728 205.603 275.17 204.592 277.715 204.592C280.258 204.595 282.695 205.608 284.491 207.408C286.287 209.208 287.294 211.647 287.292 214.19Z" fill="#97CAD1"/>
<path d="M287.292 214.19C287.294 216.733 286.287 219.172 284.491 220.972C282.695 222.772 280.258 223.785 277.715 223.788C275.17 223.788 272.728 222.777 270.928 220.977C269.128 219.177 268.117 216.736 268.117 214.19C268.117 211.645 269.128 209.203 270.928 207.403C272.728 205.603 275.17 204.592 277.715 204.592C280.258 204.595 282.695 205.608 284.491 207.408C286.287 209.208 287.294 211.647 287.292 214.19V214.19Z" stroke="#00455D" stroke-width="1.868" stroke-linejoin="round"/>
<path d="M343.745 214.19C343.747 216.733 342.74 219.172 340.944 220.972C339.148 222.772 336.711 223.785 334.168 223.788C331.623 223.788 329.181 222.777 327.382 220.977C325.582 219.177 324.57 216.736 324.57 214.19C324.57 211.645 325.582 209.203 327.382 207.403C329.181 205.603 331.623 204.592 334.168 204.592C336.711 204.595 339.148 205.608 340.944 207.408C342.74 209.208 343.747 211.647 343.745 214.19V214.19Z" stroke="#353E48" stroke-width="1.868" stroke-linejoin="round"/>
<path fill-rule="evenodd" clip-rule="evenodd" d="M86.7184 99.5168L77.6094 147.586C77.6094 147.586 81.6574 151.085 83.3924 149.716C85.1274 148.347 90.1884 142.414 95.8264 142.566L97.8504 142.718C97.8504 142.718 96.9664 136.634 99.7214 132.679C102.476 128.724 114.912 101.038 86.7184 99.5168Z" fill="#0098AB"/>
<path fill-rule="evenodd" clip-rule="evenodd" d="M102.806 169.371C115.99 177.412 114.941 174.741 116.589 178.41C118.237 182.079 132.17 200.55 132.17 200.55L140.11 193.372C140.11 193.372 120.334 161.895 97.5628 144.402C97.5628 144.402 91.8698 142.758 89.7718 145.897C87.6738 149.036 83.9288 152.177 80.6328 151.429C80.6328 151.429 81.0828 158.756 102.806 169.371Z" fill="#F6F7F8"/>
<path fill-rule="evenodd" clip-rule="evenodd" d="M125.998 148.013C125.998 148.013 134.212 144.638 139.589 144.945C144.966 145.252 149.147 144.177 149.147 144.177C149.147 144.177 153.03 123.765 148.4 119.929L158.257 114.25C158.257 114.25 157.212 93.9931 142.128 87.3931C142.128 87.3931 134.511 89.8491 129.284 123.612L125.998 148.013ZM127.006 149.694C127.006 149.694 127.158 154.467 129.751 156.776C132.344 159.085 156.727 171.71 156.727 171.71C156.727 171.71 171.848 187.723 175.052 192.804C178.256 197.885 182.525 203.581 182.525 203.581L191.524 195.679C191.524 195.679 178.254 163.089 149.732 145.999C149.732 145.999 139.665 145.845 134.937 147.076C130.209 148.307 127.006 149.694 127.006 149.694Z" fill="#EFDECC"/>
<path fill-rule="evenodd" clip-rule="evenodd" d="M184.266 146.68C184.266 146.68 182.45 153.625 184.266 156.941C186.082 160.257 212.642 180.344 212.642 180.344L219.75 168.252L203.103 147.775C203.103 147.775 199.362 145.389 197.491 146.68C195.62 147.971 190.231 147.159 189.091 146.297C187.951 145.435 184.266 146.68 184.266 146.68Z" fill="#0098AB"/>
<path fill-rule="evenodd" clip-rule="evenodd" d="M201.836 97.4971C201.836 97.4971 211.118 103.264 211.384 118.261C211.65 133.258 212.995 135.95 212.995 135.95L215.716 139.656L211.384 144.024L206.261 141.525L204.722 149.023C204.722 149.023 202.22 145.615 198.565 145.781C194.91 145.947 192.6 147.538 188.367 145.781C184.134 144.024 181.441 144.863 181.441 144.863L201.836 97.4971Z" fill="#F6F7F8"/>
<path fill-rule="evenodd" clip-rule="evenodd" d="M224.983 85.373L221.463 88.394C221.463 88.394 222.85 91.307 221.57 93.142C220.436 94.767 219.33 97.214 217.197 97.498C215.064 97.782 213.464 99.509 212.824 101.882C212.184 104.255 214.104 107.601 214.104 107.601L228.823 87.748L224.983 85.373Z" fill="white"/>
<path fill-rule="evenodd" clip-rule="evenodd" d="M220.682 83.37C220.682 83.37 218.571 91.746 199.449 87.725C196.517 86.724 188.305 89.631 186.428 90.749C184.551 91.867 177.747 92.08 176.574 87.725C175.401 83.37 180.584 82.363 181.687 82.363C182.79 82.363 186.31 79.68 183.847 76.772C182.44 75.43 188.188 73.865 193.701 74.983C199.214 76.101 207.426 73.326 212.94 74.602C218.454 75.878 221.268 81.021 220.682 83.37Z" fill="#EFDECC"/>
<path fill-rule="evenodd" clip-rule="evenodd" d="M229.784 38.8979L206.645 52.3479L233.863 61.125L229.784 38.8979Z" fill="#FA6666"/>
<path fill-rule="evenodd" clip-rule="evenodd" d="M243.846 104.276C243.846 104.276 236.947 118.757 236.129 126.762C235.311 134.767 232.854 154.075 232.854 154.075L256.125 150.308C256.125 150.308 254.488 145.01 256.125 140.889C257.762 136.768 261.387 123.583 261.387 123.583L257.528 121.465L262.089 108.397C262.089 108.397 252.851 101.333 243.846 104.276Z" fill="white"/>
<path fill-rule="evenodd" clip-rule="evenodd" d="M237.895 156.732C237.895 156.732 253.109 170.415 258.831 173.271L270.153 161.087L256.534 151.044L237.895 156.732Z" fill="#EFDECC"/>
<path fill-rule="evenodd" clip-rule="evenodd" d="M142.16 68.1969C142.16 68.1969 141.245 58.9669 149.114 56.5239C156.983 54.0809 163.297 62.3609 163.297 62.3609L142.16 68.1969ZM297.373 211.672L301.808 219.747C301.808 219.747 308.26 214.595 308.394 212.646C308.528 210.697 310.545 209.862 311.082 209.862C311.619 209.862 319.551 200.396 319.551 200.396C319.551 200.396 316.862 196.915 313.77 197.611C310.678 198.307 305.706 201.091 305.706 201.091C305.706 201.091 304.093 208.1 300.598 208.632L297.373 211.672Z" fill="#0098AB"/>
<path d="M227.816 157.106L246.969 172.261" stroke="#00455D" stroke-width="1.868" stroke-linecap="round" stroke-linejoin="round"/>
<path d="M205.942 90.4241C205.942 90.4241 202.861 97.6491 199.951 97.8271C197.554 102.88 180.436 147.007 180.436 147.007C180.436 147.007 184.373 144.884 186.941 146.132C189.509 147.38 191.734 148.763 195.158 147.536C198.582 146.309 202.689 146.865 204.402 148.013L207.654 142.21" stroke="#00455D" stroke-width="1.705" stroke-linecap="round" stroke-linejoin="round"/>
<path d="M199.588 112.103L203.986 133.923C204.903 136.993 207.468 141.558 212.416 144.061C217.364 146.564 221.212 151.548 221.212 154.382C221.212 157.216 227.077 158.116 227.077 158.116C227.077 158.116 232.208 155.017 224.877 147.088C217.546 139.159 212.233 135.109 212.233 135.109C212.233 135.109 216.082 105.063 207.652 101.538M213.734 109.621L241.927 73.677C241.927 73.677 242.108 70.958 238.289 71.522L235.196 68.197C235.196 68.197 229.568 73.225 230.018 74.423C230.468 75.621 232.832 76.679 230.649 79.155C228.466 81.631 221.918 87.641 221.918 87.641C221.918 87.641 223.555 94.535 219.918 95.419C216.281 96.303 210.459 99.454 211.914 103.611" stroke="#00455D" stroke-width="1.868" stroke-linecap="round" stroke-linejoin="round"/>
<path d="M221.767 82.342C221.767 82.342 221.767 72.169 209.67 71.228M216.727 78.301C216.727 78.301 216.014 73.464 204.962 74.374C193.91 75.284 191.592 74.949 187.492 74.26M212.694 78.865C212.694 78.865 206.766 77.346 203.453 78.767C201.36 80.011 194.56 78.898 190.724 77.68C186.888 76.462 180.436 78.496 180.436 78.496M217.735 81.331C217.735 81.331 213.875 85.081 194.225 82.248C184.755 82.248 180.436 85.372 180.436 85.372M218.743 85.373C218.743 85.373 211.576 88.476 202.311 86.991C193.046 85.506 188.5 87.393 188.5 87.393" stroke="#00455D" stroke-width="1.705" stroke-linecap="round" stroke-linejoin="round"/>
<path d="M243.716 195.499C243.716 195.499 250.7 205.965 253.028 205.7C255.356 205.435 259.108 199.606 262.083 199.871C265.058 200.136 266.867 200.558 267.126 201.34C267.385 202.122 254.71 220.008 253.674 219.744C252.638 219.48 248.501 212.192 248.501 212.192L237.896 207.622L240.224 202.256" fill="#0098AB"/>
<path d="M243.716 195.499C243.716 195.499 250.7 205.965 253.028 205.7C255.356 205.435 259.108 199.606 262.083 199.871C265.058 200.136 266.867 200.558 267.126 201.34C267.385 202.122 254.71 220.008 253.674 219.744C252.638 219.48 248.501 212.192 248.501 212.192L237.896 207.622L240.224 202.256" stroke="#00455D" stroke-width="1.868" stroke-linecap="round" stroke-linejoin="round"/>
<path d="M222.775 150.539C222.775 152.492 221.196 154.075 219.247 154.075C217.298 154.075 215.719 152.492 215.719 150.539C215.719 148.586 217.298 147.003 219.247 147.003C221.196 147.003 222.775 148.586 222.775 150.539Z" fill="white"/>
<path d="M222.773 150.539C222.773 152.492 221.194 154.075 219.245 154.075C217.296 154.075 215.717 152.492 215.717 150.539C215.717 148.586 217.296 147.003 219.245 147.003C221.194 147.003 222.773 148.586 222.773 150.539Z" stroke="#00455D" stroke-width="1.868" stroke-linejoin="bevel"/>
<path d="M238.904 87.3939L231.304 35.8669C231.304 35.8669 206.645 51.3369 206.645 53.4379C206.645 55.5389 236.721 66.0409 236.721 66.0409M211.685 144.982L217.734 138.92" stroke="#00455D" stroke-width="1.868" stroke-linecap="round" stroke-linejoin="round"/>
<path d="M145.711 82.342C145.711 82.342 136.716 90.91 133.664 104.676L124.99 146.469C124.99 146.469 130.933 148.525 139.126 144.567C143.623 142.666 152.939 143.458 152.939 143.458C152.939 143.458 151.976 132.058 154.224 128.1" stroke="#00455D" stroke-width="1.705" stroke-linecap="round" stroke-linejoin="round"/>
<path d="M145.473 119.724L161.229 112.751C161.229 112.751 163.115 91.9891 144.144 83.3521M140.111 104.569L147.168 118.714M161.156 115.683C161.156 115.683 169.095 136.816 172.63 141.142C176.165 145.468 177.395 152.419 175.55 154.735C173.705 157.051 172.016 159.303 169.403 157.406C166.79 155.509 168.327 154.837 167.098 153.782C165.869 152.727 169.864 147.226 169.864 147.226C169.864 147.226 154.342 136.041 150.192 119.59" stroke="#00455D" stroke-width="1.705" stroke-linecap="round" stroke-linejoin="round"/>
<path d="M169.346 150.539C169.346 152.492 167.766 154.075 165.818 154.075C163.87 154.075 162.289 152.492 162.289 150.539C162.289 148.586 163.869 147.003 165.818 147.003C167.767 147.003 169.346 148.586 169.346 150.539Z" fill="white"/>
<path d="M169.346 150.539C169.346 152.492 167.766 154.075 165.818 154.075C163.87 154.075 162.289 152.492 162.289 150.539C162.289 148.586 163.869 147.003 165.818 147.003C167.767 147.003 169.346 148.586 169.346 150.539Z" stroke="#00455D" stroke-width="1.705" stroke-linejoin="bevel"/>
<path d="M156.108 93.4549C156.108 93.4549 152.815 83.3559 158.996 82.0969C165.177 80.8379 169.201 83.3759 169.345 72.2379M129.021 72.2389C129.021 72.2389 143.777 69.9849 154.434 66.6709C165.091 63.3569 166.32 62.6739 166.32 62.6739C166.32 62.6739 163.904 54.0659 153.431 55.1589C142.958 56.2519 143.886 67.8659 143.886 67.8659" stroke="#00455D" stroke-width="1.705" stroke-linecap="round" stroke-linejoin="bevel"/>
<path d="M142.294 70.218C142.294 70.218 141.007 76.081 145.583 77.113C145.583 77.113 143.191 80.994 148.176 80.218M154.224 69.208C154.224 69.208 149.688 72.984 154.224 76.28" stroke="#00455D" stroke-width="1.705" stroke-linecap="round" stroke-linejoin="round"/>
<path d="M159.266 67.999C159.266 67.999 159.126 71.571 162.482 71.201C165.838 70.831 165.838 67.999 165.838 67.999C165.838 67.999 168.075 70.339 170.172 68.985C172.269 67.631 171.151 65.536 170.172 65.167" stroke="#00455D" stroke-width="1.868" stroke-linecap="round" stroke-linejoin="round"/>
<path d="M127.013 147.27C127.013 147.27 126.598 154.133 132.141 157.053C137.684 159.973 161.246 173.38 161.246 173.38L182.591 203.581L193.54 194.549C193.54 194.549 181.343 163.631 151.075 142.962M175.394 157.106L194.548 172.261" stroke="#00455D" stroke-width="1.705" stroke-linecap="round" stroke-linejoin="round"/>
<path d="M186.482 200.328L189.989 205.127C189.989 205.127 188.831 207.858 189.217 208.769C189.603 209.68 193.862 216.311 194.693 215.66C195.524 215.009 215.074 195.634 215.66 193.943C216.246 192.252 212.181 189.581 209.258 190.722L195.78 196.024L194.693 193.608" fill="#0098AB"/>
<path d="M186.482 200.328L189.989 205.127C189.989 205.127 188.831 207.858 189.217 208.769C189.603 209.68 193.862 216.311 194.693 215.66C195.524 215.009 215.074 195.634 215.66 193.943C216.246 192.252 212.181 189.581 209.258 190.722L195.78 196.024L194.693 193.608" stroke="#353E48" stroke-width="1.705" stroke-linecap="round" stroke-linejoin="round"/>
<path d="M195.123 196.509C195.123 196.509 197.87 204.303 189.506 205.602" stroke="#353E48" stroke-width="1.705" stroke-linecap="round" stroke-linejoin="round"/>
<path d="M144.742 148.013L142.127 154.068L153.666 161.181C156.116 162.557 159.937 162.635 161.281 160.399" stroke="#00455D" stroke-width="1.705" stroke-linecap="round" stroke-linejoin="round"/>
<path d="M147.168 149.023L145.152 155.085" stroke="#00455D" stroke-width="1.705" stroke-linecap="round" stroke-linejoin="round"/>
<path d="M94.1836 91.4351C94.1836 91.4351 85.8896 96.9871 80.0466 141.972C79.1046 148.29 79.1046 157.287 87.1156 161.69L114.732 176.813L131.696 200.55C131.696 200.55 139.425 195.765 141.121 191.553C141.121 191.553 122.837 163.03 103.422 146.949" stroke="#00455D" stroke-width="1.868" stroke-linecap="round" stroke-linejoin="bevel"/>
<path d="M92.7767 98.5071C92.7767 98.5071 115.245 106.653 105.322 126.164C105.322 126.164 100.692 131.744 100.315 143.435C100.315 143.435 91.4628 142.5 89.7678 145.618C88.0728 148.736 84.9918 151.697 81.7568 150.918C78.5218 150.139 76.5178 149.203 75.5938 150.139" stroke="#00455D" stroke-width="1.705" stroke-linecap="round" stroke-linejoin="bevel"/>
<path d="M88.7393 101.538C88.7393 101.538 87.4593 121.936 99.3673 133.932C111.275 145.928 116.484 151.925 116.484 151.925L114.438 153.473L119.833 158.116C119.833 158.116 122.996 152.506 118.717 147.088C114.438 141.67 100.345 122.13 100.345 122.13V106.846" stroke="#00455D" stroke-width="1.705" stroke-linecap="round" stroke-linejoin="round"/>
<path d="M89.7076 74.7051C89.7076 74.7051 92.4436 65.8631 101.145 66.1851C109.846 66.5071 113.108 75.0271 113.108 76.7951C113.108 78.5631 114.04 79.8501 113.884 82.9041C113.728 85.9581 112.871 96.0861 106.075 94.9601C99.2786 93.8341 104.077 105.579 104.077 105.579M86.6836 78.3001C86.6836 78.3001 86.8506 86.4401 95.7566 89.4141M111.886 76.2961C111.886 76.2961 105.628 75.6601 102.813 82.3421" stroke="#00455D" stroke-width="1.868" stroke-linecap="round" stroke-linejoin="bevel"/>
<path d="M116.925 150.539C116.925 152.492 115.346 154.075 113.397 154.075C111.448 154.075 109.869 152.492 109.869 150.539C109.869 148.586 111.449 147.003 113.397 147.003C115.345 147.003 116.925 148.586 116.925 150.539Z" fill="white"/>
<path d="M116.925 150.539C116.925 152.492 115.346 154.075 113.397 154.075C111.448 154.075 109.869 152.492 109.869 150.539C109.869 148.586 111.449 147.003 113.397 147.003C115.345 147.003 116.925 148.586 116.925 150.539Z" stroke="#00455D" stroke-width="1.705" stroke-linejoin="bevel"/>
<path d="M120.959 155.085L141.12 171.251" stroke="#00455D" stroke-width="1.705" stroke-linecap="round" stroke-linejoin="bevel"/>
<path d="M137.088 197.872L140.758 205.33C140.758 205.33 139.499 208.43 141.405 210.182C142.588 211.276 143.699 212.446 144.729 213.685L148.984 209.103C148.984 209.103 149.136 206.226 149.84 205.778C150.544 205.33 158.548 201.693 161.282 195.36C161.282 195.36 159.903 189.431 151.111 194.551C147.424 196.303 145.864 197.246 145.864 197.246C145.864 197.246 143.878 203.444 142.318 204.387" fill="#0098AB"/>
<path d="M137.088 197.872L140.758 205.33C140.758 205.33 139.499 208.43 141.405 210.182C142.588 211.276 143.699 212.446 144.729 213.685L148.984 209.103C148.984 209.103 149.136 206.226 149.84 205.778C150.544 205.33 158.548 201.693 161.282 195.36C161.282 195.36 159.903 189.431 151.111 194.551C147.424 196.303 145.864 197.246 145.864 197.246C145.864 197.246 143.878 203.444 142.318 204.387" stroke="#353E48" stroke-width="1.705" stroke-linecap="round" stroke-linejoin="round"/>
<path d="M303.375 200.55C303.375 200.55 304.265 206.275 298.383 206.612" stroke="#353E48" stroke-width="1.705" stroke-linecap="round" stroke-linejoin="round"/>
<path d="M236.889 150.034C236.889 150.034 240.447 117.398 243.525 111.652C246.603 105.906 253.27 94.77 249.461 89.463C245.652 84.156 242.224 79.221 243.747 77.839C245.27 76.457 259.937 72.03 261.08 73.57C262.223 75.11 268.129 87.566 268.129 89.229C268.129 90.892 268.7 96.195 261.461 97.97C258.604 99.36 259.176 105.519 259.176 105.519M247.977 104.569C247.977 104.569 260.88 106.085 273.975 118.556C287.07 131.027 301.706 142.732 302.476 145.059C303.246 147.386 305.364 156.28 298.817 153.565C295.735 151.82 296.506 146.852 296.506 146.852L249.519 116.209" stroke="#00455D" stroke-width="1.868" stroke-linecap="round" stroke-linejoin="round"/>
<path d="M263.098 124.776L258.057 143.972M249.635 146.464C249.635 146.464 258.327 145.403 258.134 146.464C257.941 147.525 260.999 152.928 263.623 153.674C266.247 154.42 273.2 158.441 272.041 160.165C270.882 161.889 260.259 175.292 260.259 175.292C260.259 175.292 238.626 159.946 236.888 155.747M232.855 155.085L255.033 150.034M257.049 83.3521L264.106 81.3311M260.062 86.3831C260.062 86.3831 256.897 87.1091 257.055 89.2941C257.213 91.4791 259.57 92.4451 261.082 92.4451" stroke="#00455D" stroke-width="1.868" stroke-linecap="round" stroke-linejoin="round"/>
<path fill-rule="evenodd" clip-rule="evenodd" d="M213.701 178.788L219.764 182.512C219.764 182.512 223.344 187.556 227.815 191.039C232.286 194.522 240.526 200.55 240.526 200.55L243.943 194.418L222.498 168.22L213.701 178.788ZM264.105 171.393L277.439 179.735L296.761 208.633C296.761 208.633 305.064 207.118 303.015 201.676C300.859 195.952 286.585 171.393 286.585 171.393L271.73 162.158L264.105 171.393Z" fill="#97CAD1"/>
<path d="M290.62 210.324C290.62 210.324 294.236 208.01 296.33 210.324C298.424 212.638 299.946 217.845 301.659 216.495C303.372 215.145 319.551 196.439 319.551 196.439C319.551 196.439 317.457 193.756 313.65 194.229C309.843 194.702 302.595 199.928 302.595 199.928L287.955 172.12C285.861 167.857 275.195 161.147 275.195 161.147M263.098 172.261L277.686 180.063L297.373 208.633M215.031 179.845C215.031 179.845 218.852 182.832 220.534 183.481C220.534 183.481 222.82 189.844 226.204 191.533C228.942 193.299 240.452 202.571 240.452 202.571L243.944 195.948C243.944 195.948 216.265 156.21 209.669 152.054M184.135 144.982C184.135 144.982 181.771 155.069 185.884 159.641C189.997 164.213 212.749 180.344 212.749 180.344L222.774 168.278" stroke="#00455D" stroke-width="1.868" stroke-linecap="round" stroke-linejoin="round"/>
</svg>
